<svg width="24" height="24" viewBox="0 0 24 24" fill="none" xmlns="http://www.w3.org/2000/svg">
<path d="M9.27584 7.28062C9.09916 7.45835 8.99999 7.69878 8.99999 7.9494C8.99999 8.20001 9.09916 8.44044 9.27584 8.61818L12.634 12.0237L9.27584 15.3819C9.09916 15.5596 8.99999 15.8 8.99999 16.0506C8.99999 16.3012 9.09916 16.5417 9.27584 16.7194C9.36403 16.8083 9.46895 16.8789 9.58454 16.9271C9.70014 16.9752 9.82413 17 9.94936 17C10.0746 17 10.1986 16.9752 10.3142 16.9271C10.4298 16.8789 10.5347 16.8083 10.6229 16.7194L14.645 12.6973C14.734 12.6091 14.8045 12.5041 14.8527 12.3885C14.9009 12.273 14.9256 12.149 14.9256 12.0237C14.9256 11.8985 14.9009 11.7745 14.8527 11.6589C14.8045 11.5433 14.734 11.4384 14.645 11.3502L10.6229 7.28062C10.5347 7.1917 10.4298 7.12113 10.3142 7.07297C10.1986 7.02481 10.0746 7.00002 9.94936 7.00002C9.82413 7.00002 9.70014 7.02481 9.58454 7.07297C9.46895 7.12113 9.36403 7.1917 9.27584 7.28062Z" fill="currentColor"/>
</svg>
