<svg width="10" height="6" viewBox="0 0 10 6" fill="none" xmlns="http://www.w3.org/2000/svg">
<path d="M9.7194 0.275913C9.54166 0.0992315 9.30123 6.10352e-05 9.05062 6.10352e-05C8.80001 6.10352e-05 8.55958 0.0992315 8.38184 0.275913L4.97628 3.63404L1.61816 0.275913C1.44042 0.0992315 1.19999 6.10352e-05 0.94938 6.10352e-05C0.698767 6.10352e-05 0.458337 0.0992315 0.280601 0.275913C0.191688 0.3641 0.121116 0.469019 0.0729554 0.584617C0.0247951 0.700216 0 0.824206 0 0.949436C0 1.07467 0.0247951 1.19866 0.0729554 1.31425C0.121116 1.42985 0.191688 1.53477 0.280601 1.62296L4.30276 5.64512C4.39095 5.73403 4.49587 5.8046 4.61147 5.85276C4.72706 5.90092 4.85105 5.92572 4.97628 5.92572C5.10151 5.92572 5.2255 5.90092 5.3411 5.85276C5.4567 5.8046 5.56162 5.73403 5.64981 5.64512L9.7194 1.62296C9.80831 1.53477 9.87888 1.42985 9.92704 1.31425C9.9752 1.19866 10 1.07467 10 0.949436C10 0.824206 9.9752 0.700216 9.92704 0.584617C9.87888 0.469019 9.80831 0.3641 9.7194 0.275913Z" fill="#F3F4F0"/>
</svg>
