<svg viewBox="0 0 64 64" xmlns="http://www.w3.org/2000/svg"><path d="M55 6a1 1 0 0 0 1-1V1a1 1 0 0 0-1-1H43a1 1 0 0 0-1 1v13.586l-9-9V1a1 1 0 0 0-1.707-.707l-4 4A1 1 0 0 0 27 5v4.586L8.294 28.292a1.013 1.013 0 0 0-.191.284.948.948 0 0 0-.033.094.992.992 0 0 0-.054.264c0 .022-.012.04-.012.062V63a1 1 0 0 0 1 1H55a1 1 0 0 0 1-1V29c0-.022-.011-.04-.012-.062a.992.992 0 0 0-.054-.264.948.948 0 0 0-.033-.094 1.013 1.013 0 0 0-.191-.284L48 20.586V6Zm-26-.586 2-2v2.172l-2 2Zm-1 6 1.086 1.086-15.5 15.5h-2.172Zm26 29.013c-.027-.012-.055-.019-.082-.03a4.931 4.931 0 0 0-.5-.18l-.084-.024a4.575 4.575 0 0 0-2.54-.026l-.025.007a4.679 4.679 0 0 0-.564.18c-.067.025-.131.057-.2.085-.137.06-.274.118-.405.191a4.781 4.781 0 0 0-.6.384 4.863 4.863 0 0 0-.756-.466c-.046-.024-.09-.049-.137-.071s-.074-.04-.112-.057V30h6Zm-8.468-.388a4.9 4.9 0 0 0-1.418.354 4.73 4.73 0 0 0-.231.1c-.106.051-.212.1-.314.159a4.51 4.51 0 0 0-.569.365 4.933 4.933 0 0 0-6 0 5.075 5.075 0 0 0-6 0 5.075 5.075 0 0 0-6 0 5.075 5.075 0 0 0-6 0 5.077 5.077 0 0 0-5.987-.011 4.858 4.858 0 0 0-.617-.391c-.047-.026-.1-.05-.143-.074a4.929 4.929 0 0 0-1.418-.465l-.067-.01a5.083 5.083 0 0 0-.629-.054c-.047 0-.092-.012-.139-.012V30h36v10c-.083 0-.164.016-.246.02s-.148.011-.222.019ZM16.414 28 30.5 13.914 44.586 28ZM10 42.006h.037a3.181 3.181 0 0 1 1.726.572l.04.031a2.873 2.873 0 0 1 .456.414 1 1 0 0 0 .747.339 1 1 0 0 0 .746-.334 2.959 2.959 0 0 1 4.489.01 1.032 1.032 0 0 0 1.51 0 2.95 2.95 0 0 1 4.49 0 1.032 1.032 0 0 0 1.51 0 2.95 2.95 0 0 1 4.49 0 1.032 1.032 0 0 0 1.51 0 2.95 2.95 0 0 1 4.49 0 1.032 1.032 0 0 0 1.51 0 2.95 2.95 0 0 1 4.49 0 1 1 0 0 0 1.51 0A2.982 2.982 0 0 1 46 42v20H10ZM48 62V42.786a3.089 3.089 0 0 1 .251.248 1 1 0 0 0 1.5 0 2.935 2.935 0 0 1 .465-.423c.058-.043.123-.072.184-.11a2.986 2.986 0 0 1 .351-.2c.062-.028.128-.044.191-.068a3.175 3.175 0 0 1 .4-.125c.051-.011.1-.015.155-.024a3.053 3.053 0 0 1 .467-.046h.109a3.045 3.045 0 0 1 .513.052c.027 0 .054.013.081.019a3.022 3.022 0 0 1 .5.16c.031.013.061.028.092.042a2.887 2.887 0 0 1 .425.242c.05.034.1.07.145.107s.108.1.163.149V62Zm-.586-34L31.207 11.793 29.414 10 32 7.414l10.292 10.292 4 4L52.586 28ZM44 16.586V2h10v2h-7a1 1 0 0 0-1 1v13.586Z" data-name="Layer 21" fill="currentColor" class="fill-000000"></path></svg>