<svg width="60" height="60" viewBox="0 0 60 60" fill="none" xmlns="http://www.w3.org/2000/svg">
<g filter="url(#filter0_d_1321_5393)">
<path d="M0 -2H56V41C56 49.2843 49.2843 56 41 56H15C6.71573 56 0 49.2843 0 41V-2Z" fill="#F3F4F0"/>
<path d="M1 -1H55V41C55 48.732 48.732 55 41 55H15C7.26801 55 1 48.732 1 41V-1Z" stroke="#383838" stroke-width="2"/>
</g>
<g clip-path="url(#clip0_1321_5393)">
<path d="M19.0217 14.5001V23.0002L22.5216 21L19.0217 14.5001Z" fill="#54596E"/>
<path d="M19.0218 14.5001H18.5217V23.0001C18.5217 23.1787 18.6164 23.3429 18.7708 23.4324C18.9253 23.522 19.1147 23.5229 19.2698 23.4342L22.7697 21.434C23.0054 21.2993 23.0907 21.002 22.962 20.7631L19.4618 14.2629C19.3531 14.0609 19.1219 13.959 18.8993 14.0151C18.6767 14.0715 18.5217 14.2706 18.5217 14.5001H19.0218L18.5814 14.7372L21.8504 20.8078L19.5219 22.1384V14.5001H19.0218L18.5814 14.7372L19.0218 14.5001Z" fill="#54596E"/>
<path d="M37.0215 14.5001V23.0002L33.5216 21L37.0215 14.5001Z" fill="#54596E"/>
<path d="M37.0215 14.5001H36.5216V22.1384L34.1931 20.8078L37.4618 14.7372L37.0215 14.5001H36.5216H37.0215L36.5814 14.2632L33.0813 20.7631C32.9525 21.0023 33.0378 21.2996 33.2735 21.4343L36.7734 23.4342C36.9285 23.5229 37.1179 23.5223 37.2724 23.4327C37.4269 23.3429 37.5216 23.1787 37.5216 23.0001V14.5001C37.5216 14.2706 37.3662 14.0715 37.1439 14.0151C36.9213 13.959 36.6902 14.0609 36.5814 14.2629L37.0215 14.5001Z" fill="#54596E"/>
<path d="M30.3027 17.5003H25.7408C22.1231 17.5003 19.182 20.0257 19.0478 23.198L19.0475 23.2043L19.0217 39.0003H37.0215L36.9958 23.2043L36.9955 23.198C36.8613 20.0257 33.9202 17.5003 30.3027 17.5003Z" fill="#FF927D"/>
<path d="M30.3027 17.5001V17H25.7408C23.8151 17.0003 22.061 17.6715 20.7632 18.779C19.4663 19.8844 18.6212 21.4391 18.5482 23.1766L18.548 23.1786V23.1849L18.5477 23.2032L18.5216 38.9992C18.5214 39.1328 18.5734 39.2587 18.6678 39.3534C18.7622 39.4478 18.8881 39.4999 19.0217 39.4999H37.0216C37.1555 39.4999 37.281 39.4478 37.3755 39.3534C37.4699 39.2587 37.5219 39.1328 37.5217 38.9992L37.4959 23.2032L37.4953 23.1849L37.4951 23.1786V23.1766C37.4218 21.4391 36.5772 19.8844 35.2801 18.779C33.9823 17.6715 32.2282 17.0003 30.3025 17V18.0002C31.9947 17.9999 33.52 18.5913 34.6306 19.5397C35.7418 20.4898 36.4348 21.7842 36.496 23.219L36.4957 23.217L36.496 23.2233L36.9958 23.2041L36.4957 23.2049L36.5206 38.4999H19.5224L19.5473 23.2049L19.0472 23.2041L19.547 23.2233L19.5473 23.217L19.547 23.219C19.6083 21.7842 20.3012 20.4898 21.4124 19.5397C22.5231 18.5913 24.0483 17.9999 25.7406 18.0002H30.3025V17.5001H30.3027Z" fill="#54596E"/>
<path d="M35.6533 38.5001H20.8893C18.4769 38.5001 16.5214 40.1764 16.5214 42.2443V45.5002H39.5214V41.8155C39.5214 39.9847 37.7896 38.5001 35.6533 38.5001Z" fill="#999999"/>
<path d="M35.6533 38.5001V38.0003H20.8893C19.567 38.0006 18.3613 38.4584 17.4753 39.2171C16.5904 39.9735 16.0207 41.049 16.0213 42.2443V45.5002C16.0213 45.6318 16.0748 45.7605 16.1678 45.8538C16.2611 45.9468 16.3898 46 16.5214 46H39.5214C39.653 46 39.7818 45.9468 39.8748 45.8538C39.968 45.7605 40.0213 45.6318 40.0213 45.5002V41.8155C40.0218 40.7386 39.5086 39.7704 38.7138 39.0915C37.9184 38.4103 36.8375 38.0006 35.6533 38.0003V39.0002C36.6052 38.9999 37.4586 39.3321 38.0629 39.8511C38.6683 40.3721 39.0205 41.0616 39.0213 41.8158V45.0001H17.0212V42.2443C17.0221 41.3717 17.4304 40.5752 18.1262 39.9764C18.8211 39.3799 19.7993 38.9997 20.8893 39.0002H35.6533V38.5001Z" fill="#54596E"/>
<path d="M26.6457 42.5L22.5215 45.5H33.45L29.1199 42.5H26.6457Z" fill="#54596E"/>
<path d="M26.6455 42.5L26.3514 42.0957L22.2273 45.0958C22.0528 45.2228 21.9792 45.4494 22.0459 45.6549C22.1128 45.86 22.3057 45.9999 22.5214 45.9999H33.4499C33.6688 45.9999 33.8619 45.8583 33.9271 45.6491C33.9926 45.4403 33.9148 45.2137 33.7346 45.0892L29.4047 42.0892C29.3206 42.0308 29.2222 42.0002 29.1198 42.0002H26.6455C26.5408 42.0002 26.4358 42.0342 26.3514 42.0957L26.6455 42.5V43.0001H28.9635L31.8503 45H24.0586L26.9397 42.9043L26.6455 42.5V43.0001V42.5Z" fill="#54596E"/>
<path d="M28.0216 15.0002C23.0512 15.0002 19.0217 19.0293 19.0217 24.0001V28.5002H37.0215V24.0001C37.0215 19.0293 32.9921 15.0002 28.0216 15.0002Z" fill="#999999"/>
<path d="M28.0217 15.0002V14.5001C22.7748 14.5004 18.5222 18.753 18.5217 24.0001V28.5002C18.5217 28.6318 18.5752 28.7605 18.6681 28.8535C18.7614 28.9468 18.8902 29 19.0218 29H37.0216C37.1535 29 37.2822 28.9468 37.3752 28.8535C37.4685 28.7605 37.5217 28.6318 37.5217 28.5002V24.0001C37.5214 18.753 33.2685 14.5004 28.0217 14.5001V15.5003C30.3706 15.5003 32.4923 16.4507 34.0321 17.9897C35.571 19.5295 36.5215 21.6512 36.5217 24.0001V28.0001H19.5219V24.0001C19.5219 21.6512 20.4723 19.5295 22.0112 17.9897C23.551 16.4507 25.6731 15.5003 28.0217 15.5V15.0002Z" fill="#54596E"/>
<path d="M22.8392 24.0002C22.8392 24.0002 23.9329 26.344 26.1204 26.5002C26.1204 26.5002 26.7456 24.7816 22.8392 24.0002Z" fill="white"/>
<path d="M33.1574 24.0002C33.1574 24.0002 32.0636 26.344 29.8761 26.5002C29.8761 26.5002 29.251 24.7816 33.1574 24.0002Z" fill="white"/>
<path d="M26.0216 40V35.0001H30.0216V40" fill="#999999"/>
<path d="M26.5214 40.0001V35.5003H29.5215V40.0001C29.5215 40.2762 29.7455 40.5002 30.0216 40.5002C30.2977 40.5002 30.5214 40.2762 30.5214 40.0001V35.0002C30.5214 34.8683 30.4682 34.7395 30.3749 34.6465C30.2819 34.5533 30.1532 34.5001 30.0216 34.5001H26.0216C25.89 34.5001 25.7609 34.5533 25.668 34.6465C25.575 34.7395 25.5215 34.8683 25.5215 35.0002V40.0001C25.5215 40.2762 25.7455 40.5002 26.0216 40.5002C26.2977 40.5002 26.5214 40.2762 26.5214 40.0001Z" fill="#54596E"/>
<path d="M20.5217 28.0001C20.5217 32.1423 23.8794 37 28.0216 37C32.1638 37 35.5218 32.1423 35.5218 28.0001V27.0002L28.0216 28.5002L20.5212 27.0002L20.5217 28.0001Z" fill="#FFD578"/>
<path d="M20.5217 28.0002H20.0216C20.0251 30.206 20.9025 32.5418 22.3248 34.3619C23.0374 35.2709 23.8897 36.0511 24.8516 36.609C25.8123 37.1666 26.8875 37.5005 28.0216 37.5002C29.156 37.5005 30.2309 37.1666 31.1919 36.609C32.6342 35.7713 33.8315 34.4375 34.6784 32.9103C35.5235 31.3816 36.0205 29.655 36.0219 28.0002V27.0003C36.0219 26.8501 35.9547 26.7087 35.8388 26.6134C35.7229 26.5185 35.571 26.4804 35.4237 26.5099L28.0219 27.9902L20.6193 26.5099C20.4722 26.4804 20.3203 26.5185 20.2042 26.6137C20.0883 26.7087 20.0213 26.8503 20.0213 27.0005L20.0219 28.0005L21.0216 27.9999V27.6099L27.9235 28.9904C27.9887 29.0033 28.0545 29.0033 28.1198 28.9904L35.0217 27.6099V28.0002C35.0251 29.9365 34.2235 32.1006 32.9314 33.7451C32.2868 34.5682 31.5229 35.2614 30.6904 35.7438C29.8567 36.2265 28.9586 36.5 28.0219 36.5003C27.0849 36.5 26.1869 36.2268 25.3534 35.7438C24.104 35.0211 23.0108 33.8198 22.2401 32.4259C21.4679 31.0332 21.0207 29.4522 21.0218 28.0002H20.5217Z" fill="#54596E"/>
<path d="M27.5216 31.5002H28.5215C29.0737 31.5002 29.5214 31.0525 29.5214 30.5C29.5214 29.9478 29.0737 29.5001 28.5215 29.5001H27.5216C26.9691 29.5001 26.5214 29.9478 26.5214 30.5C26.5214 31.0525 26.9691 31.5002 27.5216 31.5002Z" fill="#FF927D"/>
<path d="M26.0216 31.0001H30.0216C30.2977 31.0001 30.5214 30.7761 30.5214 30.5C30.5214 30.2239 30.2977 30.0002 30.0216 30.0002H26.0216C25.7455 30.0002 25.5215 30.2239 25.5215 30.5C25.5215 30.7761 25.7455 31.0001 26.0216 31.0001Z" fill="#FF927D"/>
<path d="M24.0216 36.9999V39.0001C24.0216 41.7612 21.7832 44 19.0217 44V36.9999" fill="#FF927D"/>
<path d="M23.5218 36.9999V39C23.5216 40.244 23.0189 41.3661 22.2038 42.1818C21.3878 42.9969 20.266 43.4996 19.0218 43.5001V44H19.5219V36.9999C19.5219 36.7238 19.2978 36.5001 19.0218 36.5001C18.7457 36.5001 18.5217 36.7238 18.5217 36.9999V44C18.5217 44.1316 18.5752 44.2603 18.6681 44.3536C18.7614 44.4466 18.8902 44.4998 19.0218 44.4998C22.0596 44.4998 24.5212 42.0376 24.5218 39V36.9999C24.5218 36.7238 24.2978 36.5001 24.0217 36.5001C23.7456 36.5001 23.5218 36.7238 23.5218 36.9999Z" fill="#54596E"/>
</g>
<defs>
<filter id="filter0_d_1321_5393" x="0" y="-2" width="60" height="62" filterUnits="userSpaceOnUse" color-interpolation-filters="sRGB">
<feFlood flood-opacity="0" result="BackgroundImageFix"/>
<feColorMatrix in="SourceAlpha" type="matrix" values="0 0 0 0 0 0 0 0 0 0 0 0 0 0 0 0 0 0 127 0" result="hardAlpha"/>
<feOffset dx="2" dy="2"/>
<feGaussianBlur stdDeviation="1"/>
<feColorMatrix type="matrix" values="0 0 0 0 0 0 0 0 0 0 0 0 0 0 0 0 0 0 0.28 0"/>
<feBlend mode="normal" in2="BackgroundImageFix" result="effect1_dropShadow_1321_5393"/>
<feBlend mode="normal" in="SourceGraphic" in2="effect1_dropShadow_1321_5393" result="shape"/>
</filter>
<clipPath id="clip0_1321_5393">
<rect width="32" height="32" fill="white" transform="translate(12 14)"/>
</clipPath>
</defs>
</svg>
