<svg width="352" height="16" viewBox="0 0 352 16" fill="none" xmlns="http://www.w3.org/2000/svg">
<path fill-rule="evenodd" clip-rule="evenodd" d="M324.252 0H313.748C312.86 3.45045 309.728 6 306 6C302.272 6 299.14 3.45045 298.252 0H287.748C286.86 3.45045 283.728 6 280 6C276.272 6 273.14 3.45045 272.252 0H261.748C260.86 3.45045 257.728 6 254 6C250.272 6 247.14 3.45045 246.252 0H235.748C234.86 3.45045 231.728 6 228 6C224.272 6 221.14 3.45045 220.252 0H209.748C208.86 3.45045 205.728 6 202 6C198.272 6 195.14 3.45045 194.252 0H183.748C182.86 3.45045 179.728 6 176 6C172.272 6 169.14 3.45045 168.252 0H157.748C156.86 3.45045 153.728 6 150 6C146.272 6 143.14 3.45045 142.252 0H131.748C130.86 3.45045 127.728 6 124 6C120.272 6 117.14 3.45045 116.252 0H105.748C104.86 3.45045 101.728 6 98 6C94.2723 6 91.1401 3.45045 90.252 0H79.748C78.8599 3.45045 75.7277 6 72 6C68.2723 6 65.1401 3.45045 64.252 0H53.748C52.8599 3.45045 49.7277 6 46 6C42.2723 6 39.1401 3.45045 38.252 0H27.748C26.8599 3.45045 23.7277 6 20 6C16.2723 6 13.1401 3.45045 12.252 0H0V16H352V0H339.748C338.86 3.45045 335.728 6 332 6C328.272 6 325.14 3.45045 324.252 0Z" fill="#F3F4F0"/>
</svg>
