<svg width="22" height="18" viewBox="0 0 22 18" fill="none" xmlns="http://www.w3.org/2000/svg">
<path d="M18.66 0.990013C16.02 -0.809987 12.76 0.0300133 11 2.09001C9.23997 0.0300133 5.97997 -0.819987 3.33997 0.990013C1.93997 1.95001 1.05997 3.57001 0.999969 5.28001C0.859969 9.16001 4.29997 12.27 9.54997 17.04L9.64997 17.13C10.41 17.82 11.58 17.82 12.34 17.12L12.45 17.02C17.7 12.26 21.13 9.15001 21 5.27001C20.94 3.57001 20.06 1.95001 18.66 0.990013ZM11.1 15.55L11 15.65L10.9 15.55C6.13997 11.24 2.99997 8.39001 2.99997 5.50001C2.99997 3.50001 4.49997 2.00001 6.49997 2.00001C8.03997 2.00001 9.53997 2.99001 10.07 4.36001H11.94C12.46 2.99001 13.96 2.00001 15.5 2.00001C17.5 2.00001 19 3.50001 19 5.50001C19 8.39001 15.86 11.24 11.1 15.55Z" fill="currentColor"/>
</svg>
