<svg width="60" height="60" viewBox="0 0 60 60" fill="none" xmlns="http://www.w3.org/2000/svg">
<g filter="url(#filter0_d_4864_2132)">
<path d="M0 -2H56V41C56 49.2843 49.2843 56 41 56H15C6.71573 56 0 49.2843 0 41V-2Z" fill="#F3F4F0"/>
<path d="M1 -1H55V41C55 48.732 48.732 55 41 55H15C7.26801 55 1 48.732 1 41V-1Z" stroke="#383838" stroke-width="2"/>
</g>
<g clip-path="url(#clip0_4864_2132)">
<path d="M39.789 41.395H16.2538V31.1621H39.789V41.395Z" fill="#FFF35F"/>
<path d="M39.7888 41.3955V40.8837H16.7651V31.674H39.277V41.3952H39.7888V40.8834V41.3955H40.3005V31.1625C40.3005 31.0278 40.2461 30.8961 40.1506 30.8007C40.0552 30.7055 39.9237 30.6511 39.7888 30.6511H16.2536C16.1186 30.6511 15.9869 30.7055 15.8917 30.8007C15.7966 30.8961 15.7419 31.0278 15.7419 31.1625V41.3955C15.7419 41.5301 15.7963 41.6619 15.8917 41.7573C15.9872 41.8525 16.1186 41.9069 16.2536 41.9069H39.7888C39.9235 41.9069 40.0552 41.8525 40.1506 41.7573C40.2461 41.6619 40.3005 41.5301 40.3005 41.3955H39.7888Z" fill="#54596E"/>
<path d="M16.2536 41.3953H23.9283V43.4417H16.2536V41.3953Z" fill="#EDEDED"/>
<path d="M23.9281 43.4416V42.9302H16.7651V41.9067H23.4163V43.4416H23.9281V42.9299V43.4416H24.4395V41.3952C24.4395 41.2605 24.3851 41.1285 24.2899 41.0333C24.1945 40.9379 24.0627 40.8835 23.9281 40.8835H16.2536C16.1186 40.8835 15.9869 40.9379 15.8917 41.0333C15.7966 41.1285 15.7419 41.2602 15.7419 41.3952V43.4416C15.7419 43.5766 15.7963 43.7083 15.8917 43.8035C15.9872 43.8989 16.1186 43.9534 16.2536 43.9534H23.9281C24.0627 43.9534 24.1945 43.8989 24.2896 43.8035C24.3851 43.7083 24.4395 43.5766 24.4395 43.4416H23.9281Z" fill="#54596E"/>
<path d="M21.8816 45.4881H18.3003C17.1699 45.4881 16.2536 44.5718 16.2536 43.4414H23.9283C23.9283 44.5718 23.012 45.4881 21.8816 45.4881Z" fill="#EDEDED"/>
<path d="M21.8814 45.4885V44.9767H18.3C17.4525 44.9753 16.7665 44.2893 16.7651 43.4418H16.2533V43.9535H23.9281V43.4418H23.4163C23.4149 44.2893 22.7289 44.9753 21.8814 44.9767V46.0002C23.2945 45.9999 24.4392 44.8549 24.4395 43.4418C24.4395 43.3071 24.3851 43.1754 24.2896 43.0799C24.1945 42.9848 24.0627 42.9303 23.9281 42.9303H16.2533C16.1186 42.9303 15.9869 42.9848 15.8917 43.0799C15.7963 43.1754 15.7419 43.3071 15.7419 43.4418C15.7421 44.8549 16.8868 45.9996 18.3 46.0002H21.8814V45.4885Z" fill="#54596E"/>
<path d="M32.1147 41.3953H39.7891V43.4417H32.1147V41.3953Z" fill="#EDEDED"/>
<path d="M39.789 43.4416V42.9302H32.6263V41.9067H39.2773V43.4416H39.789V42.9299V43.4416H40.3008V41.3952C40.3008 41.2605 40.2463 41.1285 40.1509 41.0333C40.0557 40.9379 39.924 40.8835 39.789 40.8835H32.1145C31.9799 40.8835 31.8478 40.9379 31.7527 41.0333C31.6575 41.1285 31.6028 41.2602 31.6028 41.3952V43.4416C31.6028 43.5766 31.6575 43.7083 31.7527 43.8035C31.8478 43.8989 31.9799 43.9534 32.1145 43.9534H39.789C39.9237 43.9534 40.0554 43.8989 40.1509 43.8035C40.2463 43.7083 40.3008 43.5766 40.3008 43.4416H39.789Z" fill="#54596E"/>
<path d="M37.7427 45.4881H34.1611C33.031 45.4881 32.1147 44.5718 32.1147 43.4414H39.7891C39.7891 44.5718 38.8728 45.4881 37.7427 45.4881Z" fill="#EDEDED"/>
<path d="M37.7426 45.4885V44.9767H34.1609C33.3137 44.9753 32.6275 44.2893 32.626 43.4418H32.1145V43.9535H39.789V43.4418H39.2773C39.2758 44.2893 38.5898 44.9753 37.7426 44.9767V46.0002C39.1555 45.9999 40.3002 44.8549 40.3008 43.4418C40.3008 43.3071 40.246 43.1754 40.1509 43.0799C40.0554 42.9848 39.9237 42.9303 39.789 42.9303H32.1145C31.9799 42.9303 31.8478 42.9848 31.7527 43.0799C31.6575 43.1754 31.6028 43.3071 31.6028 43.4418C31.6031 44.8549 32.7481 45.9996 34.1609 46.0002H37.7426V45.4885Z" fill="#54596E"/>
<path d="M16.2536 24.5112H39.789V31.1625H16.2536V24.5112Z" fill="#EDEDED"/>
<path d="M39.7888 24.511V23.9995H16.2533C16.1186 23.9995 15.9869 24.054 15.8917 24.1491C15.7963 24.2446 15.7419 24.3763 15.7419 24.511V31.1622C15.7419 31.2969 15.7963 31.4289 15.8917 31.5241C15.9869 31.6192 16.1186 31.674 16.2533 31.674H39.7888C39.9235 31.674 40.0552 31.6192 40.1506 31.5241C40.2458 31.4289 40.3005 31.2969 40.3005 31.1622V24.511C40.3005 24.3763 40.2458 24.2446 40.1506 24.1491C40.0552 24.054 39.9235 23.9995 39.7888 23.9995V24.511H39.277V30.6508H16.7651V25.0227H39.7888V24.511H39.277H39.7888Z" fill="#54596E"/>
<path d="M21.8814 26.0462H28.0212V31.1626H21.8814V26.0462Z" fill="#EDEDED"/>
<path d="M28.0217 26.046V25.5345H21.8818C21.7472 25.5345 21.6154 25.589 21.5203 25.6841C21.4248 25.7796 21.3701 25.9113 21.3701 26.046V31.1623C21.3701 31.297 21.4248 31.429 21.5203 31.5241C21.6154 31.6193 21.7472 31.674 21.8818 31.674H28.0217C28.1563 31.674 28.2881 31.6193 28.3832 31.5241C28.4787 31.429 28.5331 31.297 28.5331 31.1623V26.046C28.5331 25.9113 28.4787 25.7796 28.3832 25.6841C28.2881 25.589 28.1563 25.5345 28.0217 25.5345V26.046H27.5099V30.6508H22.3936V26.5577H28.0217V26.046H27.5099H28.0217Z" fill="#54596E"/>
<path d="M28.0218 26.0462H34.1614V31.1625H28.0218V26.0462Z" fill="#54596E"/>
<path d="M34.1611 26.046V25.5345H28.0216C27.8869 25.5345 27.7549 25.589 27.6597 25.6841C27.5646 25.7796 27.5098 25.9113 27.5098 26.046V31.1623C27.5098 31.297 27.5646 31.429 27.6597 31.5241C27.7552 31.6193 27.8869 31.674 28.0216 31.674H34.1611C34.2958 31.674 34.4275 31.6193 34.523 31.5241C34.6181 31.429 34.6729 31.297 34.6729 31.1623V26.046C34.6729 25.9113 34.6181 25.7796 34.523 25.6841C34.4275 25.589 34.2958 25.5345 34.1611 25.5345V26.046H33.6494V30.6508H28.533V26.5577H34.1611V26.046H33.6494H34.1611Z" fill="#54596E"/>
<path d="M25.9747 28.6044C25.9747 29.1698 25.5165 29.6279 24.9515 29.6279C24.3862 29.6279 23.9283 29.1698 23.9283 28.6044C23.9283 28.0394 24.3862 27.5812 24.9515 27.5812C25.5165 27.5812 25.9747 28.0394 25.9747 28.6044Z" fill="#FF9999"/>
<path d="M16.2533 26.5577H39.277C39.5598 26.5577 39.7888 26.3285 39.7888 26.046C39.7888 25.7635 39.5598 25.5345 39.277 25.5345H16.2533C15.9708 25.5345 15.7419 25.7635 15.7419 26.046C15.7419 26.3285 15.9708 26.5577 16.2533 26.5577Z" fill="#54596E"/>
<path d="M13.1837 30.1392H19.3235V32.6973H13.1837V30.1392Z" fill="#EDEDED"/>
<path d="M19.3232 32.6971V32.1857H13.6952V30.6504H18.8115V32.6971H19.3232V32.1857V32.6971H19.835V30.139C19.835 30.0043 19.7802 29.8725 19.6851 29.7771C19.5897 29.682 19.4579 29.6275 19.3232 29.6275H13.1834C13.0488 29.6275 12.917 29.682 12.8219 29.7771C12.7264 29.8725 12.672 30.0043 12.672 30.139V32.6971C12.672 32.8318 12.7264 32.9635 12.8219 33.059C12.917 33.1541 13.0488 33.2086 13.1834 33.2086H19.3232C19.4579 33.2086 19.5897 33.1541 19.6851 33.059C19.7802 32.9635 19.835 32.8318 19.835 32.6971H19.3232Z" fill="#54596E"/>
<path d="M13.1837 32.6971H19.3235V35.2553H13.1837V32.6971Z" fill="#EDEDED"/>
<path d="M19.3232 35.2557V34.7442H13.6952V33.209H18.8115V35.2557H19.3232V34.7442V35.2557H19.835V32.6975C19.835 32.5628 19.7802 32.4311 19.6851 32.3357C19.5897 32.2405 19.4579 32.1861 19.3232 32.1861H13.1834C13.0488 32.1861 12.917 32.2405 12.8219 32.3357C12.7264 32.4311 12.672 32.5628 12.672 32.6975V35.2557C12.672 35.3906 12.7264 35.5224 12.8219 35.6175C12.917 35.713 13.0488 35.7674 13.1834 35.7674H19.3232C19.4579 35.7674 19.5897 35.713 19.6851 35.6175C19.7802 35.5224 19.835 35.3906 19.835 35.2557H19.3232Z" fill="#54596E"/>
<path d="M15.2305 35.2557H17.2769V37.3024H15.2305V35.2557Z" fill="#EDEDED"/>
<path d="M17.2768 37.3022V36.7904H15.7421V35.7672H16.7653V37.3022H17.2768V36.7904V37.3022H17.7885V35.2555C17.7885 35.1208 17.7341 34.9891 17.6386 34.8936C17.5435 34.7985 17.4117 34.744 17.2768 34.744H15.2304C15.0957 34.744 14.9637 34.7985 14.8685 34.8936C14.7734 34.9891 14.7186 35.1208 14.7186 35.2555V37.3022C14.7186 37.4369 14.7734 37.5686 14.8685 37.6641C14.964 37.7592 15.0957 37.814 15.2304 37.814H17.2768C17.4117 37.814 17.5435 37.7592 17.6386 37.6641C17.7341 37.5686 17.7885 37.4369 17.7885 37.3022H17.2768Z" fill="#54596E"/>
<path d="M36.7193 30.1392H42.8591V32.6973H36.7193V30.1392Z" fill="#EDEDED"/>
<path d="M42.8589 32.6971V32.1857H37.2308V30.6504H42.3471V32.6971H42.8589V32.1857V32.6971H43.3703V30.139C43.3703 30.0043 43.3159 29.8725 43.2204 29.7771C43.1253 29.682 42.9935 29.6275 42.8589 29.6275H36.719C36.5844 29.6275 36.4526 29.682 36.3575 29.7771C36.262 29.8725 36.2076 30.0043 36.2076 30.139V32.6971C36.2076 32.8318 36.262 32.9635 36.3575 33.059C36.4526 33.1541 36.5844 33.2086 36.719 33.2086H42.8589C42.9935 33.2086 43.1253 33.1541 43.2204 33.059C43.3159 32.9635 43.3703 32.8318 43.3703 32.6971H42.8589Z" fill="#54596E"/>
<path d="M36.7193 32.6971H42.8591V35.2553H36.7193V32.6971Z" fill="#EDEDED"/>
<path d="M42.8589 35.2557V34.7442H37.2308V33.209H42.3471V35.2557H42.8589V34.7442V35.2557H43.3703V32.6975C43.3703 32.5628 43.3159 32.4311 43.2204 32.3357C43.1253 32.2405 42.9935 32.1861 42.8589 32.1861H36.719C36.5844 32.1861 36.4526 32.2405 36.3575 32.3357C36.262 32.4311 36.2076 32.5628 36.2076 32.6975V35.2557C36.2076 35.3906 36.262 35.5224 36.3575 35.6175C36.4526 35.713 36.5844 35.7674 36.719 35.7674H42.8589C42.9935 35.7674 43.1253 35.713 43.2204 35.6175C43.3159 35.5224 43.3703 35.3906 43.3703 35.2557H42.8589Z" fill="#54596E"/>
<path d="M24.9512 16.8367H31.0908V19.3949H24.9512V16.8367Z" fill="#54596E"/>
<path d="M31.0912 19.3948V18.883H25.4632V17.3481H30.5798V19.3948H31.0912V18.883V19.3948H31.603V16.8366C31.603 16.7016 31.5482 16.5699 31.4531 16.4748C31.3576 16.3793 31.2259 16.3249 31.0912 16.3249H24.9517C24.817 16.3249 24.685 16.3793 24.5899 16.4748C24.4947 16.5699 24.44 16.7016 24.44 16.8366V19.3948C24.44 19.5294 24.4947 19.6612 24.5899 19.7566C24.6853 19.8518 24.817 19.9062 24.9517 19.9062H31.0912C31.2259 19.9062 31.3576 19.8518 31.4531 19.7566C31.5482 19.6612 31.603 19.5294 31.603 19.3948H31.0912Z" fill="#54596E"/>
<path d="M38.7656 35.2557H40.812V37.3024H38.7656V35.2557Z" fill="#EDEDED"/>
<path d="M40.8124 37.3022V36.7904H39.2774V35.7672H40.3009V37.3022H40.8124V36.7904V37.3022H41.3241V35.2555C41.3241 35.1208 41.2694 34.9891 41.1742 34.8936C41.0788 34.7985 40.947 34.744 40.8124 34.744H38.766C38.6313 34.744 38.4993 34.7985 38.4041 34.8936C38.309 34.9891 38.2542 35.1208 38.2542 35.2555V37.3022C38.2542 37.4369 38.309 37.5686 38.4041 37.6641C38.4995 37.7592 38.6313 37.814 38.766 37.814H40.8124C40.947 37.814 41.0791 37.7592 41.1742 37.6641C41.2694 37.5686 41.3241 37.4369 41.3241 37.3022H40.8124Z" fill="#54596E"/>
<path d="M31.6347 20.7176L35.5481 21.9182C37.0336 22.3737 38.6078 21.5387 39.0636 20.053C39.5191 18.5669 38.6842 16.993 37.1984 16.5375L30.5949 14.5119L29.7696 17.2021C29.3137 18.6878 30.149 20.2617 31.6347 20.7176Z" fill="#EDEDED"/>
<path d="M31.6348 20.7176L31.4849 21.2065L35.398 22.4075C35.7221 22.5067 36.0509 22.5541 36.3744 22.5541C37.7981 22.5544 39.1129 21.6337 39.5529 20.203C39.6521 19.8789 39.6999 19.5501 39.6999 19.2266C39.7001 17.8029 38.7794 16.4878 37.3487 16.0484L30.7454 14.0227C30.4752 13.9399 30.1892 14.0915 30.1063 14.3618L29.2807 17.0519C29.1815 17.3757 29.1338 17.7048 29.1338 18.028C29.1335 19.4517 30.0542 20.7665 31.4849 21.2065L31.6348 20.7176L31.785 20.2284C30.7937 19.9251 30.1573 19.012 30.157 18.028C30.157 17.8049 30.1895 17.578 30.2588 17.352L30.9342 15.151L37.0483 17.0265C38.0393 17.3295 38.6761 18.2426 38.6764 19.2266C38.6764 19.45 38.6439 19.6769 38.5745 19.9029C38.2715 20.8939 37.358 21.5306 36.3741 21.5309C36.151 21.5309 35.9238 21.4984 35.6981 21.429L31.785 20.2284L31.6348 20.7176Z" fill="#54596E"/>
<path d="M24.4077 20.7176L20.4944 21.9182C19.0089 22.3737 17.435 21.5387 16.9789 20.053C16.5233 18.5669 17.3583 16.993 18.8441 16.5375L25.4476 14.5119L26.2729 17.2021C26.7287 18.6878 25.8938 20.2617 24.4077 20.7176Z" fill="#EDEDED"/>
<path d="M24.4072 20.7176L24.2573 20.2284L20.344 21.429C20.1183 21.4984 19.8914 21.5306 19.668 21.5309C18.6843 21.5306 17.7709 20.8939 17.4676 19.9029C17.3985 19.6769 17.3657 19.45 17.3657 19.2266C17.366 18.2426 18.0025 17.3295 18.9935 17.0268L25.1078 15.151L25.7832 17.352C25.8526 17.578 25.8854 17.8049 25.8854 18.028C25.8848 19.012 25.2483 19.9251 24.2573 20.2284L24.4072 20.7176L24.5574 21.2065C25.9881 20.7668 26.9089 19.4517 26.9083 18.028C26.9083 17.7048 26.8609 17.3757 26.7616 17.0519L25.936 14.3618C25.8532 14.0915 25.5672 13.9399 25.2969 14.0227L18.6937 16.0484C17.2627 16.4878 16.3419 17.8029 16.3425 19.2266C16.3425 19.5501 16.3899 19.8792 16.4895 20.203C16.9295 21.6337 18.2443 22.5544 19.668 22.5541C19.9912 22.5541 20.3203 22.5067 20.6438 22.4075L24.5574 21.2065L24.4072 20.7176Z" fill="#54596E"/>
<path d="M25.4629 22.4647H30.5795V24.5111H25.4629V22.4647Z" fill="#EDEDED"/>
<path d="M30.5793 22.4644V21.9526H25.4627C25.328 21.9526 25.1963 22.0071 25.1011 22.1025C25.0057 22.1977 24.9512 22.3294 24.9512 22.4644V24.5108C24.9512 24.6455 25.0057 24.7772 25.1011 24.8726C25.1963 24.9678 25.328 25.0222 25.4627 25.0222H30.5793C30.714 25.0222 30.8457 24.9678 30.9409 24.8726C31.0363 24.7772 31.0908 24.6455 31.0908 24.5108V22.4644C31.0908 22.3294 31.0363 22.1977 30.9409 22.1025C30.8457 22.0071 30.714 21.9526 30.5793 21.9526V22.4644H30.0676V23.9993H25.9744V22.9758H30.5793V22.4644H30.0676H30.5793Z" fill="#54596E"/>
<path d="M26.4863 18.8828H29.5559V22.4645H26.4863V18.8828Z" fill="#EDEDED"/>
<path d="M29.5563 18.8832V18.3717H26.4867C26.352 18.3717 26.22 18.4262 26.1248 18.5213C26.0297 18.6168 25.9749 18.7485 25.9749 18.8832V22.4649C25.9749 22.5995 26.0297 22.7313 26.1248 22.8264C26.2203 22.9219 26.352 22.9763 26.4867 22.9763H29.5563C29.6913 22.9763 29.823 22.9219 29.9181 22.8264C30.0136 22.7313 30.068 22.5995 30.068 22.4649V18.8832C30.068 18.7485 30.0136 18.6168 29.9181 18.5213C29.823 18.4262 29.6913 18.3717 29.5563 18.3717V18.8832H29.0448V21.9531H26.9981V19.3949H29.5563V18.8832H29.0448H29.5563Z" fill="#54596E"/>
<path d="M36.4631 18.6276C36.4631 19.6165 35.6615 20.4181 34.6726 20.4181C33.6836 20.4181 32.8817 19.6165 32.8817 18.6276C32.8817 17.6383 33.6836 16.8367 34.6726 16.8367C35.6615 16.8367 36.4631 17.6383 36.4631 18.6276Z" fill="#999999"/>
<path d="M36.4629 18.6274H36.9746C36.9743 17.3557 35.9441 16.3252 34.6723 16.3249C33.4003 16.3252 32.3703 17.3557 32.3698 18.6274C32.3703 19.8989 33.4003 20.9294 34.6723 20.9297C35.9441 20.9294 36.9743 19.8989 36.9746 18.6274H35.9514C35.95 19.3333 35.3785 19.905 34.6723 19.9065C33.9662 19.905 33.3944 19.3333 33.3933 18.6274C33.3944 17.9213 33.9662 17.3495 34.6723 17.3484C35.3785 17.3495 35.95 17.9213 35.9514 18.6274H36.4629Z" fill="#54596E"/>
<path d="M23.4167 18.6276C23.4167 19.6165 22.6148 20.4181 21.6259 20.4181C20.6369 20.4181 19.8354 19.6165 19.8354 18.6276C19.8354 17.6383 20.6369 16.8367 21.6259 16.8367C22.6148 16.8367 23.4167 17.6383 23.4167 18.6276Z" fill="#999999"/>
<path d="M23.4166 18.6274H23.9283C23.9278 17.3557 22.8978 16.3252 21.6258 16.3249C20.354 16.3252 19.3238 17.3557 19.3235 18.6274C19.3238 19.8989 20.354 20.9294 21.6258 20.9297C22.8978 20.9294 23.9278 19.8989 23.9283 18.6274H22.9048C22.9037 19.3333 22.3319 19.905 21.6258 19.9065C20.9196 19.905 20.3482 19.3333 20.3467 18.6274C20.3482 17.9213 20.9196 17.3495 21.6258 17.3484C22.3319 17.3495 22.9037 17.9213 22.9048 18.6274H23.4166Z" fill="#54596E"/>
<path d="M21.8814 18.1156C21.8814 18.5395 21.5376 18.8829 21.114 18.8829C20.6901 18.8829 20.3464 18.5395 20.3464 18.1156C20.3464 17.6916 20.6901 17.3482 21.114 17.3482C21.5376 17.3482 21.8814 17.6916 21.8814 18.1156Z" fill="white"/>
<path d="M34.6726 18.1156C34.6726 18.5395 34.3289 18.8829 33.905 18.8829C33.4814 18.8829 33.1377 18.5395 33.1377 18.1156C33.1377 17.6916 33.4814 17.3482 33.905 17.3482C34.3289 17.3482 34.6726 17.6916 34.6726 18.1156Z" fill="white"/>
<path d="M39.2775 38.8366H16.7655V40.8833H39.2775V38.8366Z" fill="#EEE361"/>
<path d="M32.1145 40.8833H23.9283C24.063 40.8833 24.1947 40.9378 24.2902 41.0332C24.3853 41.1284 24.4398 41.2601 24.4398 41.3951H31.6028C31.6028 41.2604 31.6575 41.1284 31.7527 41.0332C31.8478 40.9378 31.9799 40.8833 32.1145 40.8833ZM16.7653 38.8366H16.2538V40.8833H16.7653V38.8366ZM39.789 38.8366H39.2773V40.8833H39.789V38.8366Z" fill="#54596E"/>
<path d="M23.9283 40.8835H16.2538V41.3952H24.4398C24.4398 41.2605 24.3853 41.1285 24.2902 41.0334C24.1947 40.9379 24.063 40.8835 23.9283 40.8835Z" fill="#54596E"/>
<path d="M39.789 40.8835H32.1145C31.9799 40.8835 31.8478 40.9379 31.7527 41.0334C31.6575 41.1285 31.6028 41.2602 31.6028 41.3952H39.789V40.8835Z" fill="#54596E"/>
</g>
<defs>
<filter id="filter0_d_4864_2132" x="0" y="-2" width="60" height="62" filterUnits="userSpaceOnUse" color-interpolation-filters="sRGB">
<feFlood flood-opacity="0" result="BackgroundImageFix"/>
<feColorMatrix in="SourceAlpha" type="matrix" values="0 0 0 0 0 0 0 0 0 0 0 0 0 0 0 0 0 0 127 0" result="hardAlpha"/>
<feOffset dx="2" dy="2"/>
<feGaussianBlur stdDeviation="1"/>
<feColorMatrix type="matrix" values="0 0 0 0 0 0 0 0 0 0 0 0 0 0 0 0 0 0 0.28 0"/>
<feBlend mode="normal" in2="BackgroundImageFix" result="effect1_dropShadow_4864_2132"/>
<feBlend mode="normal" in="SourceGraphic" in2="effect1_dropShadow_4864_2132" result="shape"/>
</filter>
<clipPath id="clip0_4864_2132">
<rect width="32" height="32" fill="white" transform="translate(12 14)"/>
</clipPath>
</defs>
</svg>
