<svg width="24" height="24" viewBox="0 0 24 24" fill="none" xmlns="http://www.w3.org/2000/svg">
<path d="M2.85938 6.32812V15.5156H2.15625C1.76788 15.5156 1.45312 15.8304 1.45312 16.2188C1.45312 18.1573 3.03021 19.7344 4.96875 19.7344H9.62164L8.67902 22.5938H7.78125C7.39288 22.5938 7.07812 22.9085 7.07812 23.2969C7.07812 23.6852 7.39288 24 7.78125 24H16.2188C16.6071 24 16.9219 23.6852 16.9219 23.2969C16.9219 22.9085 16.6071 22.5938 16.2188 22.5938H15.321L14.3784 19.7344H19.0312C20.9698 19.7344 22.5469 18.1573 22.5469 16.2188C22.5469 15.8304 22.2321 15.5156 21.8438 15.5156H21.1406V6.32812C21.1406 5.16504 20.1943 4.21875 19.0312 4.21875H12.5823C12.6603 3.99866 12.7031 3.76208 12.7031 3.51562C12.7031 3.07013 12.564 2.65686 12.3274 2.3161C13.0168 1.73218 13.8935 1.40625 14.8125 1.40625C15.2009 1.40625 15.5156 1.09149 15.5156 0.703125C15.5156 0.314758 15.2009 0 14.8125 0C13.4368 0 12.1306 0.534851 11.1548 1.4826C10.9759 1.43317 10.788 1.40625 10.5938 1.40625C10.361 1.40625 10.1373 1.4447 9.9278 1.51465C9.00311 0.545654 7.73767 0 6.375 0H4.96875C4.58038 0 4.26562 0.314758 4.26562 0.703125C4.26562 2.07916 4.83344 3.32465 5.74677 4.21875H4.96875C3.80566 4.21875 2.85938 5.16504 2.85938 6.32812ZM13.8404 22.5938H10.1596L11.1024 19.7344H12.8978L13.8404 22.5938ZM19.0312 18.3281C18.9492 18.3281 5.46606 18.3281 4.96875 18.3281C4.05212 18.3281 3.27008 17.7398 2.97986 16.9213H21.0201C20.7299 17.7398 19.9481 18.3281 19.0312 18.3281ZM4.26562 15.5156V8.4375H6.375C6.76263 8.4375 7.07812 8.75299 7.07812 9.14062V10.5469C7.07812 11.71 8.02441 12.6562 9.1875 12.6562C10.3506 12.6562 11.2969 11.71 11.2969 10.5469V9.14062C11.2969 8.75299 11.6124 8.4375 12 8.4375C12.3876 8.4375 12.7031 8.75299 12.7031 9.14062V10.5469C12.7031 11.71 13.6494 12.6562 14.8125 12.6562C15.9756 12.6562 16.9219 11.71 16.9219 10.5469V9.14062C16.9219 8.75299 17.2374 8.4375 17.625 8.4375H19.7344V15.5156H4.26562ZM11.2969 3.51562C11.2969 3.90326 10.9814 4.21875 10.5938 4.21875C10.2061 4.21875 9.89062 3.90326 9.89062 3.51562C9.89062 3.12799 10.2061 2.8125 10.5938 2.8125C10.9814 2.8125 11.2969 3.12799 11.2969 3.51562ZM6.375 1.40625C7.29987 1.40625 8.16211 1.75854 8.81268 2.3877C8.60504 2.71417 8.48438 3.10089 8.48438 3.51562C8.48438 3.74304 8.521 3.96185 8.58783 4.16711C7.16364 3.9212 6.02985 2.81598 5.74255 1.40625H6.375ZM19.0312 5.625C19.4189 5.625 19.7344 5.94049 19.7344 6.32812V7.03125H17.625C16.4619 7.03125 15.5156 7.97754 15.5156 9.14062V10.5469C15.5156 10.9345 15.2001 11.25 14.8125 11.25C14.4249 11.25 14.1094 10.9345 14.1094 10.5469V9.14062C14.1094 7.97754 13.1631 7.03125 12 7.03125C10.8369 7.03125 9.89062 7.97754 9.89062 9.14062V10.5469C9.89062 10.9345 9.57513 11.25 9.1875 11.25C8.79987 11.25 8.48438 10.9345 8.48438 10.5469V9.14062C8.48438 7.97754 7.53809 7.03125 6.375 7.03125H4.26562V6.32812C4.26562 5.94049 4.58112 5.625 4.96875 5.625H19.0312Z" fill="currentColor"/>
</svg>
