<svg width="24" height="24" viewBox="0 0 24 24" fill="none" xmlns="http://www.w3.org/2000/svg">
<path d="M18.9059 5.70611C18.28 2.4293 15.4041 0 12 0C8.59165 0 5.71924 2.43319 5.09407 5.70611C4.21108 5.95806 3.56247 6.77162 3.56247 7.73439C3.56247 8.67189 4.17738 9.46811 5.02493 9.74186C5.05966 10.0917 6.20665 21.6457 6.25179 22.1005C6.36012 23.1834 7.26241 24 8.35071 24H15.6492C16.7375 24 17.6399 23.1834 17.7481 22.1C17.7857 21.7225 18.9315 10.1807 18.975 9.74191C19.8226 9.46811 20.4375 8.67189 20.4375 7.73439C20.4375 6.77162 19.7889 5.95806 18.9059 5.70611ZM12 1.40625C14.604 1.40625 16.8218 3.17185 17.4487 5.62501H6.55127C7.17818 3.17185 9.39598 1.40625 12 1.40625ZM16.3489 21.9607C16.3128 22.3216 16.0121 22.5938 15.6493 22.5938H8.35071C7.98795 22.5938 7.6872 22.3216 7.65115 21.9611L7.57441 21.1875H16.4257L16.3489 21.9607ZM16.5652 19.7813H7.43477L6.44824 9.84377H17.5518L16.5652 19.7813ZM18.3281 8.43752H5.67185C5.28414 8.43752 4.96872 8.12209 4.96872 7.73439C4.96872 7.35367 5.27308 7.0434 5.65118 7.0323C5.69636 7.03609 5.74099 7.03586 5.78454 7.03126H18.215C18.2394 7.03384 18.264 7.03553 18.289 7.03553C18.3085 7.03553 18.3283 7.03394 18.348 7.0323C18.7266 7.04298 19.0312 7.35344 19.0312 7.73439C19.0312 8.12209 18.7158 8.43752 18.3281 8.43752Z" fill="currentColor"/>
<path d="M12 11.2969C10.0615 11.2969 8.48434 12.874 8.48434 14.8125C8.48434 16.751 10.0615 18.3281 12 18.3281C13.9385 18.3281 15.5156 16.751 15.5156 14.8125C15.5156 12.874 13.9385 11.2969 12 11.2969ZM12 16.9219C10.8369 16.9219 9.8906 15.9756 9.8906 14.8125C9.8906 13.6494 10.8369 12.7031 12 12.7031C13.1631 12.7031 14.1094 13.6494 14.1094 14.8125C14.1094 15.9756 13.1631 16.9219 12 16.9219Z" fill="currentColor"/>
</svg>
