<svg width="37" height="18" viewBox="0 0 37 18" fill="none" xmlns="http://www.w3.org/2000/svg">
<g clip-path="url(#clip0_3582_16)">
<path d="M36.5 16.7146V18.0003H31.5179C32.9964 17.1839 34.6936 16.7146 36.5 16.7146ZM19.7857 18.0003C19.7857 17.6593 19.6503 17.3323 19.4091 17.0912C19.168 16.8501 18.841 16.7146 18.5 16.7146C18.159 16.7146 17.832 16.8501 17.5909 17.0912C17.3497 17.3323 17.2143 17.6593 17.2143 18.0003H14.585C13.0746 15.6345 10.9923 13.6875 8.53055 12.3392C6.06875 10.9909 3.30685 10.2847 0.5 10.286L0.5 9.00033C0.930714 9.00033 1.36143 9.01318 1.78571 9.04533V9.00033C1.78571 8.65933 1.65026 8.33231 1.40914 8.09119C1.16802 7.85007 0.840993 7.71461 0.5 7.71461L0.5 6.4289C1.13747 6.42889 1.75222 6.66567 2.22499 7.09329C2.69775 7.52092 2.99482 8.10891 3.05857 8.74318C3.58715 7.86652 4.18932 7.03638 4.85857 6.26176C4.39497 5.52484 3.75187 4.91768 2.98955 4.49716C2.22722 4.07664 1.37062 3.85654 0.5 3.85747L0.5 2.57176C1.52929 2.57096 2.54369 2.81757 3.45773 3.29082C4.37177 3.76406 5.15868 4.45007 5.75214 5.29104C6.35643 4.68033 7.01214 4.11461 7.7 3.60033C6.86237 2.48182 5.77546 1.57405 4.5256 0.949123C3.27575 0.324195 1.89738 -0.000671837 0.5 0.0003279H5.48214C6.76786 0.707471 7.88 1.69104 8.76071 2.86104C9.48071 2.39818 10.2393 1.98033 11.03 1.62033C10.6249 1.04445 10.1734 0.502645 9.68 0.0003279H11.4157C11.705 0.360328 11.9814 0.733185 12.245 1.1189C13.0807 0.810328 13.9357 0.559614 14.8164 0.379614C14.7457 0.251042 14.6686 0.122471 14.585 0.0003279H17.2143V0.0453279C18.0704 -0.0151093 18.9296 -0.0151093 19.7857 0.0453279V0.0003279H22.415L22.1771 0.379614C23.0643 0.559614 23.9257 0.810328 24.755 1.1189C25.0121 0.733185 25.295 0.360328 25.5907 0.0003279H27.32C26.8266 0.502645 26.3751 1.04445 25.97 1.62033C26.7607 1.98033 27.5193 2.39176 28.2457 2.86104C29.1214 1.68636 30.2367 0.711233 31.5179 0.0003279H36.5C33.5557 0.0003279 30.9393 1.41461 29.3 3.60033C29.9879 4.11461 30.6436 4.68033 31.2479 5.29104C31.8413 4.45007 32.6282 3.76406 33.5423 3.29082C34.4563 2.81757 35.4707 2.57096 36.5 2.57176V3.85747C35.6305 3.85763 34.7752 4.07825 34.0141 4.49871C33.253 4.91918 32.6109 5.52576 32.1479 6.26176C32.81 7.03318 33.4143 7.8689 33.9414 8.74318C34.0052 8.10891 34.3022 7.52092 34.775 7.09329C35.2478 6.66567 35.8625 6.42889 36.5 6.4289V7.71461C36.3273 7.71451 36.1564 7.74919 35.9974 7.8166C35.8384 7.88401 35.6946 7.98276 35.5746 8.10696C35.4546 8.23115 35.3608 8.37825 35.2989 8.53948C35.237 8.7007 35.2082 8.87274 35.2143 9.04533C35.6422 9.01523 36.071 9.00022 36.5 9.00033V10.286C30.5857 10.286 25.3786 13.3589 22.415 18.0003H19.7857ZM5.48214 18.0003H0.5V16.7146C2.30643 16.7146 4.01 17.1839 5.48214 18.0003ZM36.5 12.8575V14.1432C32.9 14.1432 29.6536 15.6218 27.32 18.0003H25.5843C28.1814 14.8568 32.1093 12.8575 36.5 12.8575ZM11.4093 18.0003H9.68C7.34643 15.6218 4.1 14.1432 0.5 14.1432V12.8575C4.89071 12.8575 8.81857 14.8568 11.4093 18.0003ZM21.0586 17.7432C21.5872 16.8665 22.1893 16.0364 22.8586 15.2618C22.3957 14.5246 21.7533 13.917 20.9915 13.4959C20.2298 13.0747 19.3736 12.8538 18.5032 12.8538C17.6328 12.8538 16.7766 13.0747 16.0149 13.4959C15.2531 13.917 14.6107 14.5246 14.1479 15.2618C14.81 16.0332 15.4143 16.8689 15.9414 17.7432C16.0051 17.1088 16.3021 16.5208 16.7749 16.0931C17.2477 15.6654 17.8625 15.4286 18.5 15.4286C19.1375 15.4286 19.7523 15.6654 20.2251 16.0931C20.6979 16.5208 20.9949 17.1088 21.0586 17.7432ZM30.245 10.1189C31.0807 9.81033 31.9357 9.55961 32.8164 9.37961C31.3312 6.90886 29.2318 4.86445 26.7226 3.44514C24.2134 2.02583 21.3796 1.27991 18.4968 1.27991C15.614 1.27991 12.7802 2.02583 10.271 3.44514C7.76172 4.86445 5.66242 6.90886 4.17714 9.37961C5.06429 9.55961 5.92571 9.81033 6.755 10.1189C8.04626 8.18835 9.79349 6.60586 11.8421 5.51149C13.8907 4.41711 16.1774 3.84459 18.5 3.84459C20.8226 3.84459 23.1093 4.41711 25.1579 5.51149C27.2065 6.60586 28.9537 8.18835 30.245 10.1189ZM26.7543 11.861C27.4807 11.3982 28.2329 10.9803 29.03 10.6203C27.8462 8.92544 26.2707 7.54136 24.4375 6.58568C22.6042 5.63 20.5674 5.13096 18.5 5.13096C16.4326 5.13096 14.3958 5.63 12.5625 6.58568C10.7293 7.54136 9.15383 8.92544 7.97 10.6203C8.76071 10.9803 9.51929 11.3918 10.2457 11.861C11.2012 10.5714 12.4455 9.52363 13.8789 8.80165C15.3124 8.07967 16.895 7.7036 18.5 7.7036C20.105 7.7036 21.6876 8.07967 23.1211 8.80165C24.5545 9.52363 25.7988 10.5714 26.7543 11.861ZM23.7521 14.291C24.3564 13.6803 25.0121 13.1146 25.7 12.6003C24.8633 11.4802 23.7768 10.5708 22.5268 9.94437C21.2769 9.31792 19.8981 8.99173 18.5 8.99173C17.1019 8.99173 15.7231 9.31792 14.4732 9.94437C13.2232 10.5708 12.1367 11.4802 11.3 12.6003C11.9879 13.1146 12.6436 13.6803 13.2479 14.291C13.8405 13.4488 14.6271 12.7614 15.5412 12.2869C16.4553 11.8124 17.4701 11.5647 18.5 11.5647C19.5299 11.5647 20.5447 11.8124 21.4588 12.2869C22.3729 12.7614 23.1595 13.4488 23.7521 14.291Z" fill="white"/>
</g>
<defs>
<clipPath id="clip0_3582_16">
<rect width="36" height="18.0003" fill="white" transform="translate(0.5)"/>
</clipPath>
</defs>
</svg>
