<svg width="24" height="24" viewBox="0 0 24 24" fill="none" xmlns="http://www.w3.org/2000/svg">
<g clip-path="url(#clip0_1342_104)">
<path d="M3.47454 22.1236C3.59356 23.1933 4.49481 24.0001 5.5711 24.0001H14.3038C15.3801 24.0001 16.2815 23.1933 16.4004 22.1229L16.5035 21.1876H18.8434C19.8786 21.1876 20.7537 20.4462 20.9242 19.4239L21.8615 13.7531C22.0772 12.4594 21.0767 11.25 19.7809 11.25H17.5986L17.6676 10.6238C17.7134 10.2082 17.3877 9.84378 16.9687 9.84378H16.1446C16.2228 9.62369 16.2656 9.38711 16.2656 9.14065C16.2656 8.40146 15.8831 7.75015 15.3059 7.37332L18.9375 2.53127C19.1704 2.22053 19.1074 1.7798 18.7969 1.54689C18.4863 1.31379 18.0454 1.37678 17.8125 1.68751L14.7747 5.73763C14.57 5.0367 14.0106 4.48537 13.3048 4.29274C13.4005 4.05214 13.4531 3.78993 13.4531 3.51564V0.703136C13.4531 0.418773 13.2817 0.162425 13.0189 0.0534765C12.7562 -0.0552884 12.4537 0.00495347 12.2526 0.206004C11.4787 0.979992 10.4496 1.40626 9.35499 1.40626H8.5312C7.36811 1.40626 6.42182 2.35255 6.42182 3.51564C6.42182 3.78993 6.47437 4.05214 6.57013 4.29274C5.67529 4.53701 5.01556 5.35695 5.01556 6.32815C5.01556 6.60244 5.06811 6.86465 5.16388 7.10525C4.26904 7.34951 3.60931 8.16946 3.60931 9.14065C3.60931 9.38711 3.65215 9.62369 3.73016 9.84378H2.90618C2.70623 9.84378 2.5158 9.92892 2.3825 10.0778C2.24901 10.2267 2.18529 10.4251 2.20726 10.624C2.23546 10.882 3.47399 22.1185 3.47454 22.1236ZM15.3986 18.375H12.3737C12.1228 18.375 11.8908 18.5087 11.765 18.7261C11.3886 19.377 10.6882 19.7813 9.93745 19.7813C9.18672 19.7813 8.48634 19.377 8.10987 18.7261C7.98408 18.5087 7.75226 18.375 7.50123 18.375H4.47631L4.32122 16.9688H7.50123C7.75208 16.9688 7.98408 16.8349 8.10969 16.6178C8.48634 15.9668 9.18672 15.5625 9.93745 15.5625C10.6882 15.5625 11.3886 15.9668 11.765 16.6178C11.8906 16.8349 12.1226 16.9688 12.3737 16.9688H15.5535L15.3986 18.375ZM14.3038 22.5938H5.5711C5.21222 22.5938 4.91192 22.3248 4.87237 21.9689L4.63122 19.7813H7.12494C7.78412 20.6576 8.82765 21.1876 9.93745 21.1876C11.0473 21.1876 12.0908 20.6576 12.75 19.7813H15.2435L15.0025 21.9683C14.963 22.3248 14.6625 22.5938 14.3038 22.5938ZM19.7809 12.6563C20.2079 12.6563 20.5472 13.0851 20.4743 13.5227L19.5368 19.1937C19.4802 19.5341 19.1885 19.7813 18.8434 19.7813H16.6584C17.5896 11.3363 16.662 19.7493 17.4435 12.6563H19.7809ZM5.01556 9.14065C5.01556 8.75302 5.33105 8.43753 5.71869 8.43753H8.5312C8.91957 8.43753 9.23432 8.12277 9.23432 7.7344C9.23432 7.34603 8.91957 7.03127 8.5312 7.03127H7.12494C6.73731 7.03127 6.42182 6.71578 6.42182 6.32815C6.42182 5.94051 6.73731 5.62502 7.12494 5.62502H8.5312C8.91957 5.62502 9.23432 5.31026 9.23432 4.9219C9.23432 4.53353 8.91957 4.21877 8.5312 4.21877C8.14356 4.21877 7.82807 3.90328 7.82807 3.51564C7.82807 3.12801 8.14356 2.81252 8.5312 2.81252H9.35499C10.313 2.81252 11.2338 2.56935 12.0468 2.11232V3.51564C12.0468 3.90328 11.7313 4.21877 11.3437 4.21877C10.9553 4.21877 10.6406 4.53353 10.6406 4.9219C10.6406 5.31026 10.9553 5.62502 11.3437 5.62502H12.75C13.1376 5.62502 13.4531 5.94051 13.4531 6.32815C13.4531 6.71578 13.1376 7.03127 12.75 7.03127H11.3437C10.9553 7.03127 10.6406 7.34603 10.6406 7.7344C10.6406 8.12277 10.9553 8.43753 11.3437 8.43753H14.1544H14.1557H14.1564C14.544 8.43753 14.8593 8.75302 14.8593 9.14065C14.8593 9.52829 14.5439 9.84378 14.1562 9.84378H5.71869C5.33105 9.84378 5.01556 9.52829 5.01556 9.14065ZM16.1838 11.25C16.1239 11.7939 15.7685 15.0193 15.7086 15.5625H12.75C12.0908 14.6862 11.0473 14.1563 9.93745 14.1563C8.82765 14.1563 7.78412 14.6862 7.12494 15.5625H4.16631L3.69097 11.25H16.1838Z" fill="currentColor"/>
</g>
<defs>
<clipPath id="clip0_1342_104">
<rect width="24" height="24" fill="white"/>
</clipPath>
</defs>
</svg>
