<svg width="24" height="24" viewBox="0 0 24 24" fill="none" xmlns="http://www.w3.org/2000/svg">
<path d="M3.5625 7.07812H4.32166C4.36761 7.63239 5.5069 21.3448 5.56677 22.0659C5.65723 23.1504 6.58063 24 7.66901 24H16.331C17.4194 24 18.3428 23.1504 18.4332 22.0657C18.4916 21.3615 19.6337 7.61554 19.6783 7.07812H20.4375C20.8259 7.07812 21.1406 6.76337 21.1406 6.375V4.96875C21.1406 3.96478 20.4355 3.12305 19.4945 2.91119L18.256 0.392761C18.1377 0.152344 17.8931 0 17.625 0H6.375C6.10693 0 5.8623 0.152344 5.74402 0.392761L4.50549 2.91119C3.56451 3.12305 2.85938 3.96478 2.85938 4.96875V6.375C2.85938 6.76337 3.17413 7.07812 3.5625 7.07812ZM6.43378 15.5156H8.04492C8.96448 16.4013 10.4145 16.9219 12 16.9219C13.5855 16.9219 15.0355 16.4013 15.9551 15.5156H17.5662L17.2119 19.7812H6.78809L6.43378 15.5156ZM17.683 14.1094H15.6544C15.4506 14.1094 15.2569 14.1978 15.1232 14.3516C14.5003 15.0696 13.3035 15.5156 12 15.5156C10.6965 15.5156 9.49969 15.0696 8.87677 14.3516C8.7431 14.1978 8.54938 14.1094 8.34558 14.1094H6.31696L6.20013 12.7031H8.34558C8.54938 12.7031 8.7431 12.6147 8.87677 12.4609C9.49969 11.7429 10.6965 11.2969 12 11.2969C13.3035 11.2969 14.5003 11.7429 15.1232 12.4609C15.2569 12.6147 15.4506 12.7031 15.6544 12.7031H17.7999L17.683 14.1094ZM16.331 22.5938H7.66901C7.30609 22.5938 6.99829 22.3105 6.96826 21.9492L6.90491 21.1875H17.0951L17.0317 21.949C17.0017 22.3105 16.6939 22.5938 16.331 22.5938ZM17.9167 11.2969H15.9551C15.0355 10.4112 13.5855 9.89062 12 9.89062C10.4145 9.89062 8.96448 10.4112 8.04492 11.2969H6.08313L5.73267 7.07812H18.2673L17.9167 11.2969ZM6.81281 1.40625H17.1872L17.9019 2.85938H6.09814L6.81281 1.40625ZM4.26562 4.96875C4.26562 4.58112 4.58112 4.26562 4.96875 4.26562H19.0272C19.0289 4.26562 19.0303 4.26581 19.0318 4.26581H19.0329C19.4198 4.26672 19.7344 4.58167 19.7344 4.96875V5.67188H4.26562V4.96875Z" fill="currentColor"/>
</svg>
