<svg width="27" height="20" viewBox="0 0 27 20" fill="none" xmlns="http://www.w3.org/2000/svg">
<path fill-rule="evenodd" clip-rule="evenodd" d="M11.5415 0H9.9165L5.0415 5L9.9165 10L5.0415 15L9.9165 20H11.5415L13.1665 18.3333L14.7915 20H16.4165L21.2915 15L16.4165 10L21.2915 5L16.4165 0H14.7915L13.1665 1.66667L11.5415 0ZM13.1665 16.6667L10.729 19.1667L6.6665 15L10.729 10.8333L13.1665 13.3333L15.604 10.8333L19.6665 15L15.604 19.1667L13.1665 16.6667ZM13.1665 11.6667L11.5415 10L13.1665 8.33333L14.7915 10L13.1665 11.6667ZM13.1665 6.66667L10.729 9.16667L6.6665 5L10.729 0.833334L13.1665 3.33333L15.604 0.833334L19.6665 5L15.604 9.16667L13.1665 6.66667ZM6.6665 20L2.604 15.8333L0.166504 18.3333L0.166504 16.6667L1.7915 15L0.166504 13.3333L0.166504 11.6667L2.604 14.1667L6.6665 10L2.604 5.83333L0.166504 8.33333L0.166504 6.66667L1.7915 5L0.166504 3.33333L0.166504 1.66667L2.604 4.16667L6.6665 0H8.2915L3.4165 5L8.2915 10L3.4165 15L8.2915 20H6.6665ZM19.6665 20L23.729 15.8333L26.1665 18.3333V16.6667L24.5415 15L26.1665 13.3333V11.6667L23.729 14.1667L19.6665 10L23.729 5.83333L26.1665 8.33333V6.66667L24.5415 5L26.1665 3.33333V1.66667L23.729 4.16667L19.6665 0H18.0415L22.9165 5L18.0415 10L22.9165 15L18.0415 20H19.6665Z" fill="white"/>
</svg>
