<svg width="125" height="76" viewBox="0 0 125 76" fill="none" xmlns="http://www.w3.org/2000/svg">
<path d="M32.1062 10.7363C32.173 12.3185 32.399 13.911 33.2774 15.1438C34.2894 16.5642 35.8921 16.577 37.3022 15.9349C37.9444 14.5248 37.9341 12.9221 36.5112 11.9101C35.2808 11.0317 33.6884 10.8031 32.1062 10.7363ZM10.6362 10.7363C9.05396 10.8031 7.4615 11.0291 6.22862 11.9075C4.80825 12.9195 4.7954 14.5222 5.43752 15.9323C6.84763 16.5745 8.45037 16.5642 9.46235 15.1413C10.3433 13.911 10.5719 12.3185 10.6362 10.7363ZM36.0694 14.6995C34.8673 14.9383 34.2689 13.9366 33.9658 12.5959C35.3065 12.899 36.3082 13.4974 36.0694 14.6995ZM6.67297 14.6995C6.4341 13.4974 7.43581 12.899 8.77657 12.5959C8.47605 13.9366 7.87503 14.9383 6.67297 14.6995Z" fill="white"/>
<path d="M73.5388 10.7363C73.6056 12.3185 73.8316 13.911 74.7101 15.1438C75.722 16.5642 77.3248 16.577 78.7349 15.9349C79.377 14.5248 79.3667 12.9221 77.9438 11.9101C76.7135 11.0317 75.121 10.8031 73.5388 10.7363ZM52.0688 10.7363C50.4866 10.8031 48.8941 11.0291 47.6612 11.9075C46.2409 12.9195 46.228 14.5222 46.8701 15.9323C48.2802 16.5745 49.883 16.5642 50.895 15.1413C51.776 13.911 52.0046 12.3185 52.0688 10.7363ZM77.502 14.6995C76.3 14.9383 75.7015 13.9366 75.3984 12.5959C76.7392 12.899 77.7409 13.4974 77.502 14.6995ZM48.1056 14.6995C47.8667 13.4974 48.8684 12.899 50.2092 12.5959C49.9087 13.9366 49.3076 14.9383 48.1056 14.6995Z" fill="white"/>
<path d="M114.971 10.7363C115.038 12.3185 115.264 13.911 116.143 15.1438C117.155 16.5642 118.757 16.577 120.167 15.9349C120.81 14.5248 120.799 12.9221 119.376 11.9101C118.146 11.0317 116.554 10.8031 114.971 10.7363ZM93.5014 10.7363C91.9192 10.8031 90.3267 11.0291 89.0939 11.9075C87.6735 12.9195 87.6606 14.5222 88.3027 15.9323C89.7129 16.5745 91.3156 16.5642 92.3276 15.1413C93.2086 13.911 93.4372 12.3185 93.5014 10.7363ZM118.935 14.6995C117.733 14.9383 117.134 13.9366 116.831 12.5959C118.172 12.899 119.173 13.4974 118.935 14.6995ZM89.5382 14.6995C89.2993 13.4974 90.301 12.899 91.6418 12.5959C91.3413 13.9366 90.7402 14.9383 89.5382 14.6995Z" fill="white"/>
<path d="M10.6362 64.2663C10.5694 62.6841 10.3433 61.0916 9.46492 59.8587C8.45294 58.4383 6.8502 58.4255 5.44009 59.0676C4.79797 60.4777 4.80824 62.0805 6.23119 63.0925C7.46407 63.9734 9.05396 64.202 10.6362 64.2663ZM32.1062 64.2663C33.6884 64.1995 35.2808 63.9734 36.5137 63.095C37.9341 62.083 37.9469 60.4803 37.3048 59.0702C35.8947 58.4281 34.292 58.4383 33.28 59.8613C32.4016 61.0916 32.173 62.6841 32.1062 64.2663ZM6.67297 60.3031C7.87503 60.0642 8.47349 61.0659 8.77657 62.4067C7.43838 62.1036 6.43667 61.5051 6.67297 60.3031ZM36.0694 60.3031C36.3082 61.5051 35.3065 62.1036 33.9658 62.4067C34.2689 61.0685 34.8673 60.0668 36.0694 60.3031Z" fill="white"/>
<path d="M52.0688 64.2663C52.002 62.6841 51.776 61.0916 50.8975 59.8587C49.8856 58.4383 48.2828 58.4255 46.8727 59.0676C46.2306 60.4777 46.2409 62.0805 47.6638 63.0925C48.8967 63.9734 50.4866 64.202 52.0688 64.2663ZM73.5388 64.2663C75.121 64.1995 76.7135 63.9734 77.9464 63.095C79.3667 62.083 79.3796 60.4803 78.7375 59.0702C77.3274 58.4281 75.7246 58.4383 74.7126 59.8613C73.8342 61.0916 73.6056 62.6841 73.5388 64.2663ZM48.1056 60.3031C49.3076 60.0642 49.9061 61.0659 50.2092 62.4067C48.871 62.1036 47.8693 61.5051 48.1056 60.3031ZM77.502 60.3031C77.7409 61.5051 76.7392 62.1036 75.3984 62.4067C75.7015 61.0685 76.3 60.0668 77.502 60.3031Z" fill="white"/>
<path d="M93.5014 64.2663C93.4346 62.6841 93.2086 61.0916 92.3302 59.8587C91.3182 58.4383 89.7154 58.4255 88.3053 59.0676C87.6632 60.4777 87.6735 62.0805 89.0964 63.0925C90.3293 63.9734 91.9192 64.202 93.5014 64.2663ZM114.971 64.2663C116.554 64.1995 118.146 63.9734 119.379 63.095C120.799 62.083 120.812 60.4803 120.17 59.0702C118.76 58.4281 117.157 58.4383 116.145 59.8613C115.267 61.0916 115.038 62.6841 114.971 64.2663ZM89.5382 60.3031C90.7402 60.0642 91.3387 61.0659 91.6418 62.4067C90.3036 62.1036 89.3019 61.5051 89.5382 60.3031ZM118.935 60.3031C119.173 61.5051 118.172 62.1036 116.831 62.4067C117.134 61.0685 117.733 60.0668 118.935 60.3031Z" fill="white"/>
<path d="M11.3013 26.7663C12.8834 26.6995 14.4759 26.4735 15.7088 25.595C17.1292 24.583 17.142 22.9803 16.4999 21.5702C15.0898 20.9281 13.487 20.9383 12.4751 22.3613C11.5966 23.5916 11.368 25.1841 11.3013 26.7663ZM11.3013 48.2363C11.368 49.8185 11.5941 51.411 12.4725 52.6438C13.4845 54.0642 15.0872 54.077 16.4973 53.4349C17.1394 52.0248 17.1292 50.4221 15.7062 49.4101C14.4759 48.5317 12.8834 48.3031 11.3013 48.2363ZM15.2644 22.8031C15.5033 24.0051 14.5016 24.6036 13.1609 24.9067C13.4639 23.5685 14.0624 22.5668 15.2644 22.8031ZM15.2644 52.1995C14.0624 52.4383 13.4639 51.4366 13.1609 50.0959C14.5016 50.399 15.5033 50.9974 15.2644 52.1995Z" fill="white"/>
<path d="M42.0001 18.5188C40.5412 17.9974 38.959 17.8947 37.2741 18.4007C34.4128 19.2637 32.7869 22.8236 32.4633 25.5437C32.3708 26.3091 32.3452 27.0899 32.3734 27.8733C31.5875 27.845 30.8092 27.8707 30.0438 27.9632C27.3238 28.2868 23.7638 29.9127 22.9008 32.774C22.3922 34.4589 22.4976 36.0411 23.0164 37.5C22.495 38.9589 22.3922 40.5411 22.9008 42.226C23.7638 45.0873 27.3238 46.7132 30.0438 47.0368C30.8092 47.1293 31.59 47.155 32.3734 47.1267C32.3452 47.9127 32.3708 48.6909 32.4633 49.4563C32.7869 52.1764 34.4128 55.7363 37.2741 56.5993C38.959 57.1079 40.5412 57.0026 42.0001 56.4812C43.459 57.0026 45.0412 57.1053 46.7262 56.5993C49.5875 55.7363 51.2133 52.1764 51.5369 49.4563C51.6294 48.6909 51.6551 47.9101 51.6268 47.1267C52.4128 47.155 53.1911 47.1293 53.9565 47.0368C56.6765 46.7132 60.2364 45.0873 61.0994 42.226C61.608 40.5411 61.5027 38.9589 60.9839 37.5C61.5053 36.0411 61.608 34.4589 61.0994 32.774C60.2364 29.9127 56.6765 28.2868 53.9565 27.9632C53.1911 27.8707 52.4102 27.845 51.6268 27.8733C51.6551 27.0873 51.6294 26.3091 51.5369 25.5437C51.2133 22.8236 49.5875 19.2637 46.7262 18.4007C45.0387 17.8921 43.459 17.9974 42.0001 18.5188ZM39.8323 35.3348C40.5464 34.9906 41.2681 34.6669 42.0001 34.3613C42.7321 34.6644 43.4539 34.9906 44.1679 35.3348C44.5121 36.0488 44.8357 36.7705 45.1414 37.5026C44.8383 38.2346 44.5121 38.9563 44.1679 39.6704C43.4539 40.0146 42.7321 40.3382 42.0001 40.6438C41.2681 40.3408 40.5464 40.0146 39.8323 39.6704C39.4881 38.9563 39.1645 38.2346 38.8589 37.5026C39.1619 36.7705 39.4881 36.0488 39.8323 35.3348ZM42.0001 27.8861C41.7536 27.714 41.4864 27.5985 41.1962 27.5574C40.8058 27.5034 40.5464 27.6062 40.3101 27.9195C39.4496 29.0522 40.2433 31.0402 40.7775 32.3425C40.3512 32.5248 39.9274 32.7123 39.5061 32.9075C39.4804 32.8382 39.4548 32.7688 39.4291 32.6995C38.6765 30.5471 37.6876 26.7894 39.9556 25.8262C40.6722 25.5231 41.3606 25.6592 42.0001 26.0522C42.6397 25.6592 43.328 25.5231 44.0446 25.8262C46.3126 26.7868 45.3238 30.5471 44.5712 32.6995C44.5455 32.7688 44.5198 32.8382 44.4941 32.9075C44.0729 32.7123 43.6491 32.5248 43.2227 32.3425C43.757 31.0402 44.5481 29.0548 43.6902 27.9195C43.4539 27.6087 43.1945 27.506 42.8041 27.5574C42.5113 27.5985 42.2441 27.714 42.0001 27.8861ZM51.6166 37.5026C51.7887 37.256 51.9042 36.9889 51.9453 36.6986C51.9993 36.3082 51.8965 36.0488 51.5832 35.8125C50.4505 34.9521 48.4625 35.7457 47.1602 36.28C46.9779 35.8536 46.7904 35.4298 46.5952 35.0086C46.6645 34.9829 46.7339 34.9572 46.8032 34.9315C48.9556 34.1789 52.7133 33.1901 53.6765 35.458C53.9796 36.1747 53.8435 36.863 53.4505 37.5026C53.8435 38.1421 53.9796 38.8305 53.6765 39.5471C52.7159 41.8151 48.9556 40.8262 46.8032 40.0736C46.7339 40.048 46.6645 40.0223 46.5952 39.9966C46.7904 39.5753 46.9779 39.1515 47.1602 38.7252C48.4625 39.2594 50.4479 40.0505 51.5832 39.1926C51.894 38.9563 51.9967 38.6969 51.9453 38.3065C51.9042 38.0137 51.7861 37.7466 51.6166 37.5026ZM42.0001 47.119C42.2467 47.2911 42.5138 47.4067 42.8041 47.4478C43.1945 47.5017 43.4539 47.399 43.6902 47.0856C44.5506 45.9529 43.757 43.9649 43.2227 42.6627C43.6491 42.4803 44.0729 42.2928 44.4941 42.0976C44.5198 42.167 44.5455 42.2363 44.5712 42.3057C45.3238 44.4581 46.3126 48.2157 44.0446 49.1789C43.328 49.482 42.6397 49.3459 42.0001 48.9529C41.3606 49.3459 40.6722 49.482 39.9556 49.1789C37.6876 48.2183 38.6765 44.4581 39.4291 42.3057C39.4548 42.2363 39.4804 42.167 39.5061 42.0976C39.9274 42.2928 40.3512 42.4803 40.7775 42.6627C40.2433 43.9649 39.4522 45.9503 40.3101 47.0856C40.5464 47.3964 40.8058 47.4991 41.1962 47.4478C41.4864 47.4067 41.7536 47.2885 42.0001 47.119ZM32.3837 37.5026C32.2116 37.7491 32.096 38.0163 32.0549 38.3065C32.001 38.6969 32.1037 38.9563 32.4171 39.1926C33.5498 40.0531 35.5378 39.2594 36.84 38.7252C37.0224 39.1515 37.2099 39.5753 37.4051 39.9966C37.3357 40.0223 37.2664 40.048 37.197 40.0736C35.0446 40.8262 31.2869 41.8151 30.3238 39.5471C30.0207 38.8305 30.1568 38.1421 30.5498 37.5026C30.1568 36.863 30.0207 36.1747 30.3238 35.458C31.2844 33.1901 35.0446 34.1789 37.197 34.9315C37.2664 34.9572 37.3357 34.9829 37.4051 35.0086C37.2099 35.4298 37.0224 35.8536 36.84 36.28C35.5378 35.7457 33.5523 34.9546 32.4171 35.8125C32.1063 36.0488 32.0035 36.3082 32.0549 36.6986C32.096 36.9889 32.2116 37.256 32.3837 37.5026ZM42.0001 23.7098C41.0986 23.2115 40.1123 23.042 39.0669 23.4221C37.6029 23.9538 36.9607 25.8981 36.858 27.2902C36.7013 29.3964 37.3409 31.6156 38.0832 33.583C36.1157 32.8408 33.8965 32.2012 31.7904 32.3579C30.3982 32.4606 28.4539 33.1027 27.9222 34.5668C27.5421 35.6147 27.7116 36.5985 28.2099 37.5C27.7116 38.4015 27.5421 39.3878 27.9222 40.4332C28.4539 41.8973 30.3982 42.5394 31.7904 42.6421C33.8965 42.7988 36.1157 42.1592 38.0832 41.417C37.3409 43.3844 36.7013 45.6036 36.858 47.7098C36.9607 49.1019 37.6029 51.0462 39.0669 51.5779C40.1149 51.958 41.0986 51.7885 42.0001 51.2902C42.9017 51.7885 43.888 51.958 44.9333 51.5779C46.3974 51.0462 47.0395 49.1019 47.1423 47.7098C47.2989 45.6036 46.6594 43.3844 45.9171 41.417C47.8845 42.1592 50.1037 42.7988 52.2099 42.6421C53.602 42.5394 55.5464 41.8973 56.078 40.4332C56.4582 39.3853 56.2887 38.4015 55.7904 37.5C56.2887 36.5985 56.4582 35.6122 56.078 34.5668C55.5464 33.1027 53.602 32.4606 52.2099 32.3579C50.1037 32.2012 47.8845 32.8408 45.9171 33.583C46.6594 31.6156 47.2989 29.3964 47.1423 27.2902C47.0395 25.8981 46.3974 23.9538 44.9333 23.4221C43.888 23.042 42.9017 23.2115 42.0001 23.7098ZM34.251 29.7534C34.1791 29.1113 34.1405 28.4692 34.1431 27.8296C34.1482 25.1815 35.3785 21.4392 38.2835 20.6481C39.6089 20.2885 40.8494 20.3759 42.0001 20.7765C43.1508 20.3759 44.3914 20.2885 45.7167 20.6481C48.6243 21.4392 49.852 25.1815 49.8572 27.8296C49.8597 28.4692 49.8212 29.1113 49.7493 29.7534C50.3914 29.6815 51.0335 29.643 51.6731 29.6455C54.3212 29.6507 58.0635 30.8784 58.8546 33.786C59.2142 35.1113 59.1268 36.3519 58.7262 37.5026C59.1268 38.6533 59.2142 39.8938 58.8546 41.2192C58.0635 44.1267 54.3212 45.3544 51.6731 45.3596C51.0335 45.3621 50.3914 45.3236 49.7493 45.2517C49.8212 45.8938 49.8597 46.536 49.8572 47.1755C49.852 49.8236 48.6217 53.5659 45.7167 54.357C44.3914 54.7166 43.1508 54.6293 42.0001 54.2286C40.8494 54.6293 39.6089 54.7166 38.2835 54.357C35.376 53.5659 34.1482 49.8236 34.1431 47.1755C34.1405 46.536 34.1791 45.8938 34.251 45.2517C33.6089 45.3236 32.9667 45.3621 32.3272 45.3596C29.6791 45.3544 25.9368 44.1267 25.1457 41.2192C24.7861 39.8938 24.8734 38.6533 25.2741 37.5026C24.8734 36.3519 24.7861 35.1113 25.1457 33.786C25.9368 30.8784 29.6791 29.6507 32.3272 29.6455C32.9667 29.643 33.6089 29.6815 34.251 29.7534Z" fill="white"/>
<path d="M31.264 26.7663C31.1972 25.1841 30.9712 23.5916 30.0927 22.3587C29.0807 20.9383 27.478 20.9255 26.0679 21.5676C25.4258 22.9777 25.4361 24.5805 26.859 25.5925C28.0919 26.4735 29.6818 26.702 31.264 26.7663ZM52.734 26.7663C54.3162 26.6995 55.9087 26.4735 57.1415 25.595C58.5619 24.583 58.5748 22.9803 57.9326 21.5702C56.5225 20.9281 54.9198 20.9383 53.9078 22.3613C53.0294 23.5916 52.8008 25.1841 52.734 26.7663ZM52.734 48.2363C52.8008 49.8185 53.0268 51.411 53.9052 52.6438C54.9172 54.0642 56.52 54.077 57.9301 53.4349C58.5722 52.0248 58.5619 50.4221 57.139 49.4101C55.9087 48.5317 54.3162 48.3031 52.734 48.2363ZM31.264 48.2363C29.6818 48.3031 28.0893 48.5291 26.8564 49.4075C25.4361 50.4195 25.4232 52.0222 26.0653 53.4323C27.4754 54.0745 29.0782 54.0642 30.0902 52.6413C30.9712 51.4109 31.1998 49.8185 31.264 48.2363ZM27.3008 22.8031C28.5028 22.5642 29.1013 23.5659 29.4044 24.9067C28.0662 24.6036 27.0645 24.0051 27.3008 22.8031ZM56.6972 22.8031C56.9361 24.0051 55.9343 24.6036 54.5936 24.9067C54.8967 23.5685 55.4951 22.5668 56.6972 22.8031ZM56.6972 52.1995C55.4951 52.4383 54.8967 51.4366 54.5936 50.0959C55.9343 50.399 56.9361 50.9974 56.6972 52.1995ZM27.3008 52.1995C27.0619 50.9974 28.0636 50.399 29.4044 50.0959C29.1039 51.4366 28.5028 52.4383 27.3008 52.1995Z" fill="white"/>
<path d="M83.4327 18.5188C81.9738 17.9974 80.3916 17.8947 78.7067 18.4007C75.8454 19.2637 74.2196 22.8236 73.8959 25.5437C73.8035 26.3091 73.7778 27.0899 73.806 27.8733C73.0201 27.845 72.2418 27.8707 71.4764 27.9632C68.7564 28.2868 65.1964 29.9127 64.3334 32.774C63.8249 34.4589 63.9302 36.0411 64.449 37.5C63.9276 38.9589 63.8249 40.5411 64.3334 42.226C65.1964 45.0873 68.7564 46.7132 71.4764 47.0368C72.2418 47.1293 73.0226 47.155 73.806 47.1267C73.7778 47.9127 73.8035 48.6909 73.8959 49.4563C74.2196 52.1764 75.8454 55.7363 78.7067 56.5993C80.3916 57.1079 81.9738 57.0026 83.4327 56.4812C84.8916 57.0026 86.4738 57.1053 88.1588 56.5993C91.0201 55.7363 92.6459 52.1764 92.9696 49.4563C93.062 48.6909 93.0877 47.9101 93.0594 47.1267C93.8454 47.155 94.6237 47.1293 95.3891 47.0368C98.1091 46.7132 101.669 45.0873 102.532 42.226C103.041 40.5411 102.935 38.9589 102.416 37.5C102.938 36.0411 103.041 34.4589 102.532 32.774C101.669 29.9127 98.1091 28.2868 95.3891 27.9632C94.6237 27.8707 93.8428 27.845 93.0594 27.8733C93.0877 27.0873 93.062 26.3091 92.9696 25.5437C92.6459 22.8236 91.0201 19.2637 88.1588 18.4007C86.4713 17.8921 84.8916 17.9974 83.4327 18.5188ZM81.2649 35.3348C81.979 34.9906 82.7007 34.6669 83.4327 34.3613C84.1648 34.6644 84.8865 34.9906 85.6005 35.3348C85.9447 36.0488 86.2684 36.7705 86.574 37.5026C86.2709 38.2346 85.9447 38.9563 85.6005 39.6704C84.8865 40.0146 84.1648 40.3382 83.4327 40.6438C82.7007 40.3408 81.979 40.0146 81.2649 39.6704C80.9208 38.9563 80.5971 38.2346 80.2915 37.5026C80.5946 36.7705 80.9208 36.0488 81.2649 35.3348ZM83.4327 27.8861C83.1862 27.714 82.919 27.5985 82.6288 27.5574C82.2384 27.5034 81.979 27.6062 81.7427 27.9195C80.8822 29.0522 81.6759 31.0402 82.2101 32.3425C81.7838 32.5248 81.36 32.7123 80.9387 32.9075C80.913 32.8382 80.8874 32.7688 80.8617 32.6995C80.1091 30.5471 79.1202 26.7894 81.3882 25.8262C82.1048 25.5231 82.7932 25.6592 83.4327 26.0522C84.0723 25.6592 84.7607 25.5231 85.4773 25.8262C87.7452 26.7868 86.7564 30.5471 86.0038 32.6995C85.9781 32.7688 85.9524 32.8382 85.9267 32.9075C85.5055 32.7123 85.0817 32.5248 84.6553 32.3425C85.1896 31.0402 85.9807 29.0548 85.1228 27.9195C84.8865 27.6087 84.6271 27.506 84.2367 27.5574C83.9439 27.5985 83.6767 27.714 83.4327 27.8861ZM93.0492 37.5026C93.2213 37.256 93.3368 36.9889 93.3779 36.6986C93.4319 36.3082 93.3291 36.0488 93.0158 35.8125C91.8831 34.9521 89.8951 35.7457 88.5928 36.28C88.4105 35.8536 88.223 35.4298 88.0278 35.0086C88.0971 34.9829 88.1665 34.9572 88.2358 34.9315C90.3882 34.1789 94.1459 33.1901 95.1091 35.458C95.4122 36.1747 95.2761 36.863 94.8831 37.5026C95.2761 38.1421 95.4122 38.8305 95.1091 39.5471C94.1485 41.8151 90.3882 40.8262 88.2358 40.0736C88.1665 40.048 88.0971 40.0223 88.0278 39.9966C88.223 39.5753 88.4105 39.1515 88.5928 38.7252C89.8951 39.2594 91.8805 40.0505 93.0158 39.1926C93.3266 38.9563 93.4293 38.6969 93.3779 38.3065C93.3368 38.0137 93.2187 37.7466 93.0492 37.5026ZM83.4327 47.119C83.6793 47.2911 83.9464 47.4067 84.2367 47.4478C84.6271 47.5017 84.8865 47.399 85.1228 47.0856C85.9832 45.9529 85.1896 43.9649 84.6553 42.6627C85.0817 42.4803 85.5055 42.2928 85.9267 42.0976C85.9524 42.167 85.9781 42.2363 86.0038 42.3057C86.7564 44.4581 87.7452 48.2157 85.4773 49.1789C84.7607 49.482 84.0723 49.3459 83.4327 48.9529C82.7932 49.3459 82.1048 49.482 81.3882 49.1789C79.1202 48.2183 80.1091 44.4581 80.8617 42.3057C80.8874 42.2363 80.913 42.167 80.9387 42.0976C81.36 42.2928 81.7838 42.4803 82.2101 42.6627C81.6759 43.9649 80.8848 45.9503 81.7427 47.0856C81.979 47.3964 82.2384 47.4991 82.6288 47.4478C82.919 47.4067 83.1862 47.2885 83.4327 47.119ZM73.8163 37.5026C73.6442 37.7491 73.5286 38.0163 73.4875 38.3065C73.4336 38.6969 73.5363 38.9563 73.8497 39.1926C74.9824 40.0531 76.9704 39.2594 78.2726 38.7252C78.455 39.1515 78.6425 39.5753 78.8377 39.9966C78.7684 40.0223 78.699 40.048 78.6297 40.0736C76.4773 40.8262 72.7196 41.8151 71.7564 39.5471C71.4533 38.8305 71.5894 38.1421 71.9824 37.5026C71.5894 36.863 71.4533 36.1747 71.7564 35.458C72.717 33.1901 76.4773 34.1789 78.6297 34.9315C78.699 34.9572 78.7684 34.9829 78.8377 35.0086C78.6425 35.4298 78.455 35.8536 78.2726 36.28C76.9704 35.7457 74.985 34.9546 73.8497 35.8125C73.5389 36.0488 73.4362 36.3082 73.4875 36.6986C73.5286 36.9889 73.6442 37.256 73.8163 37.5026ZM83.4327 23.7098C82.5312 23.2115 81.5449 23.042 80.4995 23.4221C79.0355 23.9538 78.3934 25.8981 78.2906 27.2902C78.1339 29.3964 78.7735 31.6156 79.5158 33.583C77.5483 32.8408 75.3291 32.2012 73.223 32.3579C71.8309 32.4606 69.8865 33.1027 69.3548 34.5668C68.9747 35.6147 69.1442 36.5985 69.6425 37.5C69.1442 38.4015 68.9747 39.3878 69.3548 40.4332C69.8865 41.8973 71.8309 42.5394 73.223 42.6421C75.3291 42.7988 77.5483 42.1592 79.5158 41.417C78.7735 43.3844 78.1339 45.6036 78.2906 47.7098C78.3934 49.1019 79.0355 51.0462 80.4995 51.5779C81.5475 51.958 82.5312 51.7885 83.4327 51.2902C84.3343 51.7885 85.3206 51.958 86.366 51.5779C87.83 51.0462 88.4721 49.1019 88.5749 47.7098C88.7315 45.6036 88.092 43.3844 87.3497 41.417C89.3172 42.1592 91.5363 42.7988 93.6425 42.6421C95.0346 42.5394 96.979 41.8973 97.5107 40.4332C97.8908 39.3853 97.7213 38.4015 97.223 37.5C97.7213 36.5985 97.8908 35.6122 97.5107 34.5668C96.979 33.1027 95.0346 32.4606 93.6425 32.3579C91.5363 32.2012 89.3172 32.8408 87.3497 33.583C88.092 31.6156 88.7315 29.3964 88.5749 27.2902C88.4721 25.8981 87.83 23.9538 86.366 23.4221C85.3206 23.042 84.3343 23.2115 83.4327 23.7098ZM75.6836 29.7534C75.6117 29.1113 75.5731 28.4692 75.5757 27.8296C75.5808 25.1815 76.8112 21.4392 79.7161 20.6481C81.0415 20.2885 82.2821 20.3759 83.4327 20.7765C84.5834 20.3759 85.824 20.2885 87.1494 20.6481C90.0569 21.4392 91.2846 25.1815 91.2898 27.8296C91.2923 28.4692 91.2538 29.1113 91.1819 29.7534C91.824 29.6815 92.4661 29.643 93.1057 29.6455C95.7538 29.6507 99.4961 30.8784 100.287 33.786C100.647 35.1113 100.559 36.3519 100.159 37.5026C100.559 38.6533 100.647 39.8938 100.287 41.2192C99.4961 44.1267 95.7538 45.3544 93.1057 45.3596C92.4661 45.3621 91.824 45.3236 91.1819 45.2517C91.2538 45.8938 91.2923 46.536 91.2898 47.1755C91.2846 49.8236 90.0543 53.5659 87.1494 54.357C85.824 54.7166 84.5834 54.6293 83.4327 54.2286C82.2821 54.6293 81.0415 54.7166 79.7161 54.357C76.8086 53.5659 75.5808 49.8236 75.5757 47.1755C75.5731 46.536 75.6117 45.8938 75.6836 45.2517C75.0415 45.3236 74.3994 45.3621 73.7598 45.3596C71.1117 45.3544 67.3694 44.1267 66.5783 41.2192C66.2187 39.8938 66.306 38.6533 66.7067 37.5026C66.306 36.3519 66.2187 35.1113 66.5783 33.786C67.3694 30.8784 71.1117 29.6507 73.7598 29.6455C74.3994 29.643 75.0415 29.6815 75.6836 29.7534Z" fill="white"/>
<path d="M72.6966 26.7663C72.6298 25.1841 72.4038 23.5916 71.5254 22.3587C70.5134 20.9383 68.9106 20.9255 67.5005 21.5676C66.8584 22.9777 66.8687 24.5805 68.2916 25.5925C69.5245 26.4735 71.1144 26.702 72.6966 26.7663ZM94.1666 26.7663C95.7488 26.6995 97.3413 26.4735 98.5742 25.595C99.9946 24.583 100.007 22.9803 99.3653 21.5702C97.9552 20.9281 96.3524 20.9383 95.3404 22.3613C94.462 23.5916 94.2334 25.1841 94.1666 26.7663ZM94.1666 48.2363C94.2334 49.8185 94.4594 51.411 95.3379 52.6438C96.3499 54.0642 97.9526 54.077 99.3627 53.4349C100.005 52.0248 99.9946 50.4221 98.5716 49.4101C97.3413 48.5317 95.7488 48.3031 94.1666 48.2363ZM72.6966 48.2363C71.1144 48.3031 69.5219 48.5291 68.2891 49.4075C66.8687 50.4195 66.8559 52.0222 67.498 53.4323C68.9081 54.0745 70.5108 54.0642 71.5228 52.6413C72.4038 51.4109 72.6324 49.8185 72.6966 48.2363ZM68.7334 22.8031C69.9355 22.5642 70.5339 23.5659 70.837 24.9067C69.4988 24.6036 68.4971 24.0051 68.7334 22.8031ZM98.1298 22.8031C98.3687 24.0051 97.367 24.6036 96.0262 24.9067C96.3293 23.5685 96.9278 22.5668 98.1298 22.8031ZM98.1298 52.1995C96.9278 52.4383 96.3293 51.4366 96.0262 50.0959C97.367 50.399 98.3687 50.9974 98.1298 52.1995ZM68.7334 52.1995C68.4945 50.9974 69.4963 50.399 70.837 50.0959C70.5365 51.4366 69.9355 52.4383 68.7334 52.1995Z" fill="white"/>
<path d="M114.129 26.7663C114.062 25.1841 113.836 23.5916 112.958 22.3587C111.946 20.9383 110.343 20.9255 108.933 21.5676C108.291 22.9777 108.301 24.5805 109.724 25.5925C110.957 26.4735 112.547 26.702 114.129 26.7663ZM114.129 48.2363C112.547 48.3031 110.955 48.5291 109.722 49.4075C108.301 50.4195 108.288 52.0222 108.931 53.4323C110.341 54.0745 111.943 54.0642 112.955 52.6413C113.836 51.4109 114.065 49.8185 114.129 48.2363ZM110.166 22.8031C111.368 22.5642 111.967 23.5659 112.27 24.9067C110.931 24.6036 109.93 24.0051 110.166 22.8031ZM110.166 52.1995C109.927 50.9974 110.929 50.399 112.27 50.0959C111.969 51.4366 111.368 52.4383 110.166 52.1995Z" fill="white"/>
<path d="M2.38858 0C1.86718 1.4589 1.76444 3.0411 2.273 4.72603C3.13601 7.58734 6.69594 9.21319 9.41598 9.53682C10.1814 9.62928 10.9622 9.65496 11.7456 9.62671C11.7173 10.4127 11.743 11.1909 11.8355 11.9563C12.1591 14.6764 13.785 18.2363 16.6463 19.0993C18.3312 19.6079 19.9134 19.5026 21.3723 18.9812C22.8312 19.5026 24.4134 19.6053 26.0983 19.0993C28.9596 18.2363 30.5855 14.6764 30.9091 11.9563C31.0016 11.1909 31.0273 10.4101 30.999 9.62671C31.785 9.65496 32.5632 9.62928 33.3287 9.53682C36.0487 9.21319 39.6086 7.58734 40.4716 4.72603C40.9802 3.0411 40.8749 1.4589 40.356 0L38.0983 0.00257111C38.499 1.15326 38.5864 2.39383 38.2268 3.71917C37.4357 6.62671 33.6934 7.85445 31.0453 7.85958C30.4057 7.86215 29.7636 7.82363 29.1215 7.75171C29.1934 8.39383 29.2319 9.03596 29.2293 9.67551C29.2242 12.3236 27.9939 16.0659 25.0889 16.857C23.7636 17.2166 22.523 17.1293 21.3723 16.7286C20.2216 17.1293 18.981 17.2166 17.6557 16.857C14.7482 16.0659 13.5204 12.3236 13.5153 9.67551C13.5127 9.03596 13.5513 8.39383 13.6232 7.75171C12.981 7.82363 12.3389 7.86215 11.6994 7.85958C9.05125 7.85445 5.30896 6.62671 4.51786 3.71917C4.15827 2.39383 4.2456 1.15326 4.64629 0.00257111L2.38858 0Z" fill="white"/>
<path fill-rule="evenodd" clip-rule="evenodd" d="M24.5136 0.00257111C24.2105 0.734592 23.8843 1.45634 23.5401 2.17038C22.8261 2.51456 22.1043 2.83818 21.3723 3.14383C20.6403 2.84075 19.9185 2.51456 19.2045 2.17038C18.8603 1.45634 18.5367 0.734592 18.231 0.00257111H11.7559C11.5838 0.249146 11.4682 0.516271 11.4271 0.806511C11.3732 1.19692 11.4759 1.45634 11.7893 1.69264C12.922 2.55309 14.91 1.75942 16.2122 1.22518C16.3946 1.65155 16.5821 2.07534 16.7773 2.49657L16.5692 2.57364C14.4168 3.3262 10.6591 4.31506 9.69594 2.04708C9.39286 1.33047 9.52899 0.642126 9.92197 0.00257111L7.58208 0C7.08379 0.901541 6.91427 1.88784 7.2944 2.93321C7.82608 4.39726 9.77043 5.03939 11.1626 5.14213C13.2687 5.29881 15.4879 4.65925 17.4554 3.91695C16.7131 5.88442 16.0735 8.1036 16.2302 10.2098C16.3329 11.6019 16.9751 13.5462 18.4391 14.0779C19.487 14.458 20.4708 14.2885 21.3723 13.7902C22.2739 14.2885 23.2602 14.458 24.3055 14.0779C25.7696 13.5462 26.4117 11.6019 26.5144 10.2098C26.6711 8.1036 26.0316 5.88442 25.2893 3.91695C27.2567 4.65925 29.4759 5.29881 31.5821 5.14213C32.9742 5.03939 34.9185 4.39726 35.4502 2.93321C35.8304 1.88527 35.6608 0.901541 35.1626 0L32.8227 0.00257111C33.2156 0.642126 33.3518 1.33047 33.0487 2.04708C32.0881 4.31506 28.3278 3.3262 26.1754 2.57364L25.9674 2.49657C26.1626 2.07534 26.3501 1.65155 26.5324 1.22518C27.8346 1.75942 29.8201 2.55052 30.9554 1.69264C31.2661 1.45634 31.3689 1.19692 31.3175 0.806511C31.2764 0.513703 31.1583 0.246578 30.9888 0.00257111H24.5136ZM22.1763 9.94777C21.886 9.90667 21.6189 9.7911 21.3723 9.61901C21.1257 9.78853 20.8586 9.90667 20.5684 9.94777C20.178 9.99914 19.9185 9.89641 19.6822 9.58562C18.8244 8.45035 19.6155 6.46489 20.1497 5.16266C19.7233 4.9803 19.2995 4.79281 18.8783 4.59761L18.8013 4.80566C18.0487 6.95805 17.0598 10.7183 19.3278 11.6789C20.0444 11.982 20.7328 11.8459 21.3723 11.4529C22.0119 11.8459 22.7002 11.982 23.4168 11.6789C25.6848 10.7157 24.6959 6.95805 23.9434 4.80566L23.8663 4.59761C23.4451 4.79281 23.0213 4.9803 22.5949 5.16266C23.1292 6.46489 23.9228 8.45291 23.0624 9.58562C22.8261 9.89898 22.5667 10.0017 22.1763 9.94777Z" fill="white"/>
<path d="M43.8212 0C43.2998 1.4589 43.1971 3.0411 43.7056 4.72603C44.5686 7.58734 48.1286 9.21319 50.8486 9.53682C51.614 9.62928 52.3948 9.65496 53.1782 9.62671C53.15 10.4127 53.1757 11.1909 53.2681 11.9563C53.5917 14.6764 55.2176 18.2363 58.0789 19.0993C59.7638 19.6079 61.346 19.5026 62.8049 18.9812C64.2638 19.5026 65.846 19.6053 67.531 19.0993C70.3923 18.2363 72.0181 14.6764 72.3418 11.9563C72.4342 11.1909 72.4599 10.4101 72.4316 9.62671C73.2176 9.65496 73.9958 9.62928 74.7613 9.53682C77.4813 9.21319 81.0412 7.58734 81.9043 4.72603C82.4128 3.0411 82.3075 1.4589 81.7887 0L79.531 0.00257111C79.9316 1.15326 80.019 2.39383 79.6594 3.71917C78.8683 6.62671 75.126 7.85445 72.4779 7.85958C71.8383 7.86215 71.1962 7.82363 70.5541 7.75171C70.626 8.39383 70.6645 9.03596 70.662 9.67551C70.6568 12.3236 69.4265 16.0659 66.5215 16.857C65.1962 17.2166 63.9556 17.1293 62.8049 16.7286C61.6543 17.1293 60.4137 17.2166 59.0883 16.857C56.1808 16.0659 54.953 12.3236 54.9479 9.67551C54.9453 9.03596 54.9839 8.39383 55.0558 7.75171C54.4137 7.82363 53.7715 7.86215 53.132 7.85958C50.4839 7.85445 46.7416 6.62671 45.9505 3.71917C45.5909 2.39383 45.6782 1.15326 46.0789 0.00257111L43.8212 0Z" fill="white"/>
<path fill-rule="evenodd" clip-rule="evenodd" d="M65.9462 0.00257111C65.6431 0.734592 65.3169 1.45634 64.9727 2.17038C64.2587 2.51456 63.537 2.83818 62.8049 3.14383C62.0729 2.84075 61.3512 2.51456 60.6371 2.17038C60.2929 1.45634 59.9693 0.734592 59.6637 0.00257111H53.1885C53.0164 0.249146 52.9008 0.516271 52.8597 0.806511C52.8058 1.19692 52.9085 1.45634 53.2219 1.69264C54.3546 2.55309 56.3426 1.75942 57.6448 1.22518C57.8272 1.65155 58.0147 2.07534 58.2099 2.49657L58.0019 2.57364C55.8495 3.3262 52.0917 4.31506 51.1286 2.04708C50.8255 1.33047 50.9616 0.642126 51.3546 0.00257111L49.0147 0C48.5164 0.901541 48.3469 1.88784 48.727 2.93321C49.2587 4.39726 51.203 5.03939 52.5952 5.14213C54.7013 5.29881 56.9205 4.65925 58.888 3.91695C58.1457 5.88442 57.5061 8.1036 57.6628 10.2098C57.7655 11.6019 58.4077 13.5462 59.8717 14.0779C60.9197 14.458 61.9034 14.2885 62.8049 13.7902C63.7065 14.2885 64.6928 14.458 65.7381 14.0779C67.2022 13.5462 67.8443 11.6019 67.9471 10.2098C68.1037 8.1036 67.4642 5.88442 66.7219 3.91695C68.6893 4.65925 70.9085 5.29881 73.0147 5.14213C74.4068 5.03939 76.3512 4.39726 76.8828 2.93321C77.263 1.88527 77.0935 0.901541 76.5952 0L74.2553 0.00257111C74.6483 0.642126 74.7844 1.33047 74.4813 2.04708C73.5207 4.31506 69.7604 3.3262 67.608 2.57364L67.4 2.49657C67.5952 2.07534 67.7827 1.65155 67.965 1.22518C69.2673 1.75942 71.2527 2.55052 72.388 1.69264C72.6988 1.45634 72.8015 1.19692 72.7501 0.806511C72.709 0.513703 72.5909 0.246578 72.4214 0.00257111H65.9462ZM63.6089 9.94777C63.3186 9.90667 63.0515 9.7911 62.8049 9.61901C62.5584 9.78853 62.2912 9.90667 62.001 9.94777C61.6106 9.99914 61.3512 9.89641 61.1149 9.58562C60.257 8.45035 61.0481 6.46489 61.5823 5.16266C61.156 4.9803 60.7322 4.79281 60.3109 4.59761L60.2339 4.80566C59.4813 6.95805 58.4924 10.7183 60.7604 11.6789C61.477 11.982 62.1654 11.8459 62.8049 11.4529C63.4445 11.8459 64.1328 11.982 64.8495 11.6789C67.1174 10.7157 66.1286 6.95805 65.376 4.80566L65.2989 4.59761C64.8777 4.79281 64.4539 4.9803 64.0275 5.16266C64.5618 6.46489 65.3554 8.45291 64.495 9.58562C64.2587 9.89898 63.9993 10.0017 63.6089 9.94777Z" fill="white"/>
<path d="M85.2538 0C84.7324 1.4589 84.6297 3.0411 85.1382 4.72603C86.0012 7.58734 89.5612 9.21319 92.2812 9.53682C93.0466 9.62928 93.8274 9.65496 94.6108 9.62671C94.5826 10.4127 94.6083 11.1909 94.7007 11.9563C95.0244 14.6764 96.6502 18.2363 99.5115 19.0993C101.196 19.6079 102.779 19.5026 104.238 18.9812C105.696 19.5026 107.279 19.6053 108.964 19.0993C111.825 18.2363 113.451 14.6764 113.774 11.9563C113.867 11.1909 113.893 10.4101 113.864 9.62671C114.65 9.65496 115.428 9.62928 116.194 9.53682C118.914 9.21319 122.474 7.58734 123.337 4.72603C123.845 3.0411 123.74 1.4589 123.221 0L120.964 0.00257111C121.364 1.15326 121.452 2.39383 121.092 3.71917C120.301 6.62671 116.559 7.85445 113.91 7.85958C113.271 7.86215 112.629 7.82363 111.987 7.75171C112.059 8.39383 112.097 9.03596 112.095 9.67551C112.089 12.3236 110.859 16.0659 107.954 16.857C106.629 17.2166 105.388 17.1293 104.238 16.7286C103.087 17.1293 101.846 17.2166 100.521 16.857C97.6134 16.0659 96.3857 12.3236 96.3805 9.67551C96.378 9.03596 96.4165 8.39383 96.4884 7.75171C95.8463 7.82363 95.2042 7.86215 94.5646 7.85958C91.9165 7.85445 88.1742 6.62671 87.3831 3.71917C87.0235 2.39383 87.1108 1.15326 87.5115 0.00257111L85.2538 0Z" fill="white"/>
<path fill-rule="evenodd" clip-rule="evenodd" d="M107.379 0.00257111C107.076 0.734592 106.75 1.45634 106.405 2.17038C105.691 2.51456 104.97 2.83818 104.238 3.14383C103.506 2.84075 102.784 2.51456 102.07 2.17038C101.726 1.45634 101.402 0.734592 101.096 0.00257111H94.6211C94.449 0.249146 94.3334 0.516271 94.2923 0.806511C94.2384 1.19692 94.3411 1.45634 94.6545 1.69264C95.7872 2.55309 97.7752 1.75942 99.0775 1.22518C99.2598 1.65155 99.4473 2.07534 99.6425 2.49657L99.4345 2.57364C97.2821 3.3262 93.5244 4.31506 92.5612 2.04708C92.2581 1.33047 92.3942 0.642126 92.7872 0.00257111L90.4473 0C89.949 0.901541 89.7795 1.88784 90.1596 2.93321C90.6913 4.39726 92.6357 5.03939 94.0278 5.14213C96.1339 5.29881 98.3531 4.65925 100.321 3.91695C99.5783 5.88442 98.9388 8.1036 99.0954 10.2098C99.1982 11.6019 99.8403 13.5462 101.304 14.0779C102.352 14.458 103.336 14.2885 104.238 13.7902C105.139 14.2885 106.125 14.458 107.171 14.0779C108.635 13.5462 109.277 11.6019 109.38 10.2098C109.536 8.1036 108.897 5.88442 108.154 3.91695C110.122 4.65925 112.341 5.29881 114.447 5.14213C115.839 5.03939 117.784 4.39726 118.315 2.93321C118.696 1.88527 118.526 0.901541 118.028 0L115.688 0.00257111C116.081 0.642126 116.217 1.33047 115.914 2.04708C114.953 4.31506 111.193 3.3262 109.041 2.57364L108.833 2.49657C109.028 2.07534 109.215 1.65155 109.398 1.22518C110.7 1.75942 112.685 2.55052 113.821 1.69264C114.131 1.45634 114.234 1.19692 114.183 0.806511C114.142 0.513703 114.024 0.246578 113.854 0.00257111H107.379ZM105.041 9.94777C104.751 9.90667 104.484 9.7911 104.238 9.61901C103.991 9.78853 103.724 9.90667 103.434 9.94777C103.043 9.99914 102.784 9.89641 102.547 9.58562C101.69 8.45035 102.481 6.46489 103.015 5.16266C102.589 4.9803 102.165 4.79281 101.744 4.59761L101.666 4.80566C100.914 6.95805 99.925 10.7183 102.193 11.6789C102.91 11.982 103.598 11.8459 104.238 11.4529C104.877 11.8459 105.565 11.982 106.282 11.6789C108.55 10.7157 107.561 6.95805 106.809 4.80566L106.732 4.59761C106.31 4.79281 105.887 4.9803 105.46 5.16266C105.994 6.46489 106.788 8.45291 105.928 9.58562C105.691 9.89898 105.432 10.0017 105.041 9.94777Z" fill="white"/>
<path d="M0.567383 56.4812C2.02629 57.0026 3.60848 57.1053 5.29341 56.5993C8.15471 55.7363 9.78057 52.1764 10.1042 49.4563C10.1967 48.6909 10.2223 47.9101 10.1941 47.1267C10.9801 47.155 11.7583 47.1293 12.5237 47.0368C15.2438 46.7132 18.8037 45.0873 19.6667 42.226C20.1753 40.5411 20.07 38.9589 19.5511 37.5C20.0725 36.0411 20.1753 34.4589 19.6667 32.774C18.8037 29.9127 15.2438 28.2868 12.5237 27.9632C11.7583 27.8707 10.9775 27.845 10.1941 27.8733C10.2223 27.0873 10.1967 26.3091 10.1042 25.5437C9.78057 22.8236 8.15471 19.2637 5.29341 18.4007C3.60591 17.8921 2.02629 17.9974 0.567383 18.5188V20.7765C1.71807 20.3759 2.95865 20.2885 4.28399 20.6481C7.19152 21.4392 8.41927 25.1815 8.4244 27.8296C8.42697 28.4692 8.38844 29.1113 8.31653 29.7534C8.95865 29.6815 9.60077 29.643 10.2403 29.6455C12.8884 29.6507 16.6307 30.8784 17.4218 33.786C17.7814 35.1113 17.6941 36.3519 17.2934 37.5026C17.6941 38.6533 17.7814 39.8938 17.4218 41.2192C16.6307 44.1267 12.8884 45.3544 10.2403 45.3596C9.60077 45.3621 8.95865 45.3236 8.31653 45.2517C8.38844 45.8938 8.42697 46.536 8.4244 47.1755C8.41927 49.8236 7.18896 53.5659 4.28399 54.357C2.95865 54.7166 1.71807 54.6293 0.567383 54.2286V56.4812Z" fill="white"/>
<path fill-rule="evenodd" clip-rule="evenodd" d="M0.567383 34.3613C1.2994 34.6644 2.02115 34.9906 2.73519 35.3348C3.07937 36.0488 3.403 36.7705 3.70865 37.5026C3.40557 38.2346 3.07937 38.9563 2.73519 39.6704C2.02115 40.0146 1.2994 40.3382 0.567383 40.6438V47.119C0.813958 47.2911 1.08108 47.4067 1.37132 47.4478C1.76173 47.5017 2.02115 47.399 2.25745 47.0856C3.1179 45.9529 2.32423 43.9649 1.78998 42.6627C2.21635 42.4803 2.64016 42.2928 3.06139 42.0976L3.13844 42.3057C3.89101 44.4581 4.87988 48.2157 2.6119 49.1789C1.89529 49.482 1.20694 49.3459 0.567383 48.9529V51.2902C1.46892 51.7885 2.45523 51.958 3.5006 51.5779C4.96464 51.0462 5.60677 49.1019 5.70951 47.7098C5.86618 45.6036 5.22663 43.3844 4.48433 41.417C6.4518 42.1592 8.67098 42.7988 10.7771 42.6421C12.1693 42.5394 14.1136 41.8973 14.6453 40.4332C15.0254 39.3853 14.8559 38.4015 14.3576 37.5C14.8559 36.5985 15.0254 35.6122 14.6453 34.5668C14.1136 33.1027 12.1693 32.4606 10.7771 32.3579C8.67098 32.2012 6.4518 32.8408 4.48433 33.583C5.22663 31.6156 5.86618 29.3964 5.70951 27.2902C5.60677 25.8981 4.96464 23.9538 3.5006 23.4221C2.45523 23.042 1.46892 23.2115 0.567383 23.7098V26.0522C1.20694 25.6592 1.89529 25.5231 2.6119 25.8262C4.87988 26.7868 3.89101 30.5471 3.13844 32.6995L3.06139 32.9075C2.64016 32.7123 2.21635 32.5248 1.78998 32.3425C2.32423 31.0402 3.11533 29.0548 2.25745 27.9195C2.02115 27.6087 1.76173 27.506 1.37132 27.5574C1.07851 27.5985 0.81139 27.714 0.567383 27.8861V34.3613ZM10.5126 36.6986C10.4715 36.9889 10.3559 37.256 10.1838 37.5026C10.3533 37.7466 10.4715 38.0137 10.5126 38.3065C10.564 38.6969 10.4612 38.9563 10.1504 39.1926C9.01516 40.0505 7.02971 39.2594 5.72749 38.7252C5.54512 39.1515 5.35762 39.5753 5.16242 39.9966L5.37046 40.0736C7.52286 40.8262 11.2831 41.8151 12.2438 39.5471C12.5468 38.8305 12.4107 38.1421 12.0177 37.5026C12.4107 36.863 12.5468 36.1747 12.2438 35.458C11.2806 33.1901 7.52286 34.1789 5.37046 34.9315L5.16242 35.0086C5.35762 35.4298 5.54512 35.8536 5.72749 36.28C7.02971 35.7457 9.01772 34.9521 10.1504 35.8125C10.4638 36.0488 10.5665 36.3082 10.5126 36.6986Z" fill="white"/>
<path d="M21.3723 56.0188C19.9134 55.4974 18.3312 55.3947 16.6463 55.9007C13.785 56.7637 12.1591 60.3236 11.8355 63.0437C11.743 63.8091 11.7173 64.5899 11.7456 65.3733C10.9596 65.345 10.1814 65.3707 9.41598 65.4632C6.69594 65.7868 3.13601 67.4127 2.273 70.274C1.76444 71.9589 1.86975 73.5411 2.38858 75L4.64629 75.0026C4.2456 73.8519 4.15827 72.6113 4.51786 71.286C5.30896 68.3784 9.05125 67.1507 11.6994 67.1455C12.3389 67.143 12.981 67.1815 13.6232 67.2534C13.5513 66.6113 13.5127 65.9692 13.5153 65.3296C13.5204 62.6815 14.7507 58.9392 17.6557 58.1481C18.981 57.7885 20.2216 57.8759 21.3723 58.2765C22.523 57.8759 23.7636 57.7885 25.0889 58.1481C27.9965 58.9392 29.2242 62.6815 29.2293 65.3296C29.2319 65.9692 29.1934 66.6113 29.1215 67.2534C29.7636 67.1815 30.4057 67.143 31.0453 67.1455C33.6934 67.1507 37.4357 68.3784 38.2268 71.286C38.5864 72.6113 38.499 73.8519 38.0983 75.0026L40.356 75C40.8775 73.5411 40.9802 71.9589 40.4716 70.274C39.6086 67.4127 36.0487 65.7868 33.3287 65.4632C32.5632 65.3707 31.7824 65.345 30.999 65.3733C31.0273 64.5873 31.0016 63.8091 30.9091 63.0437C30.5855 60.3236 28.9596 56.7637 26.0983 55.9007C24.4108 55.3921 22.8312 55.4974 21.3723 56.0188Z" fill="white"/>
<path fill-rule="evenodd" clip-rule="evenodd" d="M19.2045 72.8348C19.9185 72.4906 20.6403 72.1669 21.3723 71.8613C22.1043 72.1644 22.8261 72.4906 23.5401 72.8348C23.8843 73.5488 24.2079 74.2706 24.5136 75.0026H30.9888C31.1608 74.756 31.2764 74.4889 31.3175 74.1986C31.3715 73.8082 31.2687 73.5488 30.9554 73.3125C29.8227 72.4521 27.8346 73.2457 26.5324 73.78C26.3501 73.3536 26.1626 72.9298 25.9674 72.5086L26.1754 72.4315C28.3278 71.6789 32.0855 70.6901 33.0487 72.958C33.3518 73.6747 33.2156 74.363 32.8227 75.0026L35.1626 75C35.6608 74.0985 35.8304 73.1122 35.4502 72.0668C34.9185 70.6027 32.9742 69.9606 31.5821 69.8579C29.4759 69.7012 27.2567 70.3408 25.2893 71.0831C26.0316 69.1156 26.6711 66.8964 26.5144 64.7902C26.4117 63.3981 25.7696 61.4538 24.3055 60.9221C23.2602 60.542 22.2739 60.7115 21.3723 61.2098C20.4708 60.7115 19.4845 60.542 18.4391 60.9221C16.9751 61.4538 16.3329 63.3981 16.2302 64.7902C16.0735 66.8964 16.7131 69.1156 17.4554 71.0831C15.4879 70.3408 13.2687 69.7012 11.1626 69.8579C9.77043 69.9606 7.82608 70.6027 7.2944 72.0668C6.91427 73.1147 7.08379 74.0985 7.58208 75L9.92197 75.0026C9.52899 74.363 9.39286 73.6747 9.69594 72.958C10.6566 70.6901 14.4168 71.6789 16.5692 72.4315L16.7773 72.5086C16.5821 72.9298 16.3946 73.3536 16.2122 73.78C14.91 73.2457 12.9245 72.4546 11.7893 73.3125C11.4785 73.5488 11.3757 73.8082 11.4271 74.1986C11.4682 74.4889 11.5838 74.756 11.7559 75.0026H18.231C18.5341 74.2706 18.8603 73.5488 19.2045 72.8348ZM20.5684 65.0574C20.8586 65.0985 21.1257 65.214 21.3723 65.3861C21.6163 65.214 21.8834 65.0985 22.1763 65.0574C22.5667 65.006 22.8261 65.1087 23.0624 65.4195C23.9203 66.5548 23.1292 68.5402 22.5949 69.8425C23.0213 70.0248 23.4451 70.2123 23.8663 70.4075L23.9434 70.1995C24.6959 68.0471 25.6848 64.2868 23.4168 63.3262C22.7002 63.0231 22.0119 63.1592 21.3723 63.5522C20.7328 63.1592 20.0444 63.0231 19.3278 63.3262C17.0598 64.2894 18.0487 68.0471 18.8013 70.1995L18.8783 70.4075C19.2995 70.2123 19.7233 70.0248 20.1497 69.8425C19.6155 68.5402 18.8218 66.5522 19.6822 65.4195C19.9185 65.1062 20.178 65.0034 20.5684 65.0574Z" fill="white"/>
<path d="M62.8049 56.0188C61.346 55.4974 59.7638 55.3947 58.0789 55.9007C55.2176 56.7637 53.5917 60.3236 53.2681 63.0437C53.1757 63.8091 53.15 64.5899 53.1782 65.3733C52.3923 65.345 51.614 65.3707 50.8486 65.4632C48.1286 65.7868 44.5686 67.4127 43.7056 70.274C43.1971 71.9589 43.3024 73.5411 43.8212 75L46.0789 75.0026C45.6782 73.8519 45.5909 72.6113 45.9505 71.286C46.7416 68.3784 50.4839 67.1507 53.132 67.1455C53.7715 67.143 54.4137 67.1815 55.0558 67.2534C54.9839 66.6113 54.9453 65.9692 54.9479 65.3296C54.953 62.6815 56.1834 58.9392 59.0883 58.1481C60.4137 57.7885 61.6543 57.8759 62.8049 58.2765C63.9556 57.8759 65.1962 57.7885 66.5215 58.1481C69.4291 58.9392 70.6568 62.6815 70.662 65.3296C70.6645 65.9692 70.626 66.6113 70.5541 67.2534C71.1962 67.1815 71.8383 67.143 72.4779 67.1455C75.126 67.1507 78.8683 68.3784 79.6594 71.286C80.019 72.6113 79.9316 73.8519 79.531 75.0026L81.7887 75C82.3101 73.5411 82.4128 71.9589 81.9043 70.274C81.0412 67.4127 77.4813 65.7868 74.7613 65.4632C73.9958 65.3707 73.215 65.345 72.4316 65.3733C72.4599 64.5873 72.4342 63.8091 72.3418 63.0437C72.0181 60.3236 70.3923 56.7637 67.531 55.9007C65.8435 55.3921 64.2638 55.4974 62.8049 56.0188Z" fill="white"/>
<path fill-rule="evenodd" clip-rule="evenodd" d="M60.6371 72.8348C61.3512 72.4906 62.0729 72.1669 62.8049 71.8613C63.537 72.1644 64.2587 72.4906 64.9727 72.8348C65.3169 73.5488 65.6405 74.2706 65.9462 75.0026H72.4214C72.5935 74.756 72.709 74.4889 72.7501 74.1986C72.8041 73.8082 72.7013 73.5488 72.388 73.3125C71.2553 72.4521 69.2673 73.2457 67.965 73.78C67.7827 73.3536 67.5952 72.9298 67.4 72.5086L67.608 72.4315C69.7604 71.6789 73.5181 70.6901 74.4813 72.958C74.7844 73.6747 74.6483 74.363 74.2553 75.0026L76.5952 75C77.0935 74.0985 77.263 73.1122 76.8828 72.0668C76.3512 70.6027 74.4068 69.9606 73.0147 69.8579C70.9085 69.7012 68.6893 70.3408 66.7219 71.0831C67.4642 69.1156 68.1037 66.8964 67.9471 64.7902C67.8443 63.3981 67.2022 61.4538 65.7381 60.9221C64.6928 60.542 63.7065 60.7115 62.8049 61.2098C61.9034 60.7115 60.9171 60.542 59.8717 60.9221C58.4077 61.4538 57.7655 63.3981 57.6628 64.7902C57.5061 66.8964 58.1457 69.1156 58.888 71.0831C56.9205 70.3408 54.7013 69.7012 52.5952 69.8579C51.203 69.9606 49.2587 70.6027 48.727 72.0668C48.3469 73.1147 48.5164 74.0985 49.0147 75L51.3546 75.0026C50.9616 74.363 50.8255 73.6747 51.1286 72.958C52.0892 70.6901 55.8495 71.6789 58.0019 72.4315L58.2099 72.5086C58.0147 72.9298 57.8272 73.3536 57.6448 73.78C56.3426 73.2457 54.3572 72.4546 53.2219 73.3125C52.9111 73.5488 52.8084 73.8082 52.8597 74.1986C52.9008 74.4889 53.0164 74.756 53.1885 75.0026H59.6637C59.9667 74.2706 60.2929 73.5488 60.6371 72.8348ZM62.001 65.0574C62.2912 65.0985 62.5584 65.214 62.8049 65.3861C63.0489 65.214 63.3161 65.0985 63.6089 65.0574C63.9993 65.006 64.2587 65.1087 64.495 65.4195C65.3529 66.5548 64.5618 68.5402 64.0275 69.8425C64.4539 70.0248 64.8777 70.2123 65.2989 70.4075L65.376 70.1995C66.1286 68.0471 67.1174 64.2868 64.8495 63.3262C64.1328 63.0231 63.4445 63.1592 62.8049 63.5522C62.1654 63.1592 61.477 63.0231 60.7604 63.3262C58.4924 64.2894 59.4813 68.0471 60.2339 70.1995L60.3109 70.4075C60.7322 70.2123 61.156 70.0248 61.5823 69.8425C61.0481 68.5402 60.2544 66.5522 61.1149 65.4195C61.3512 65.1062 61.6106 65.0034 62.001 65.0574Z" fill="white"/>
<path d="M104.238 56.0188C102.779 55.4974 101.196 55.3947 99.5115 55.9007C96.6502 56.7637 95.0244 60.3236 94.7007 63.0437C94.6083 63.8091 94.5826 64.5899 94.6108 65.3733C93.8249 65.345 93.0466 65.3707 92.2812 65.4632C89.5612 65.7868 86.0012 67.4127 85.1382 70.274C84.6297 71.9589 84.735 73.5411 85.2538 75L87.5115 75.0026C87.1108 73.8519 87.0235 72.6113 87.3831 71.286C88.1742 68.3784 91.9165 67.1507 94.5646 67.1455C95.2042 67.143 95.8463 67.1815 96.4884 67.2534C96.4165 66.6113 96.378 65.9692 96.3805 65.3296C96.3857 62.6815 97.616 58.9392 100.521 58.1481C101.846 57.7885 103.087 57.8759 104.238 58.2765C105.388 57.8759 106.629 57.7885 107.954 58.1481C110.862 58.9392 112.089 62.6815 112.095 65.3296C112.097 65.9692 112.059 66.6113 111.987 67.2534C112.629 67.1815 113.271 67.143 113.91 67.1455C116.559 67.1507 120.301 68.3784 121.092 71.286C121.452 72.6113 121.364 73.8519 120.964 75.0026L123.221 75C123.743 73.5411 123.845 71.9589 123.337 70.274C122.474 67.4127 118.914 65.7868 116.194 65.4632C115.428 65.3707 114.648 65.345 113.864 65.3733C113.893 64.5873 113.867 63.8091 113.774 63.0437C113.451 60.3236 111.825 56.7637 108.964 55.9007C107.276 55.3921 105.696 55.4974 104.238 56.0188Z" fill="white"/>
<path fill-rule="evenodd" clip-rule="evenodd" d="M102.07 72.8348C102.784 72.4906 103.506 72.1669 104.238 71.8613C104.97 72.1644 105.691 72.4906 106.405 72.8348C106.75 73.5488 107.073 74.2706 107.379 75.0026H113.854C114.026 74.756 114.142 74.4889 114.183 74.1986C114.237 73.8082 114.134 73.5488 113.821 73.3125C112.688 72.4521 110.7 73.2457 109.398 73.78C109.215 73.3536 109.028 72.9298 108.833 72.5086L109.041 72.4315C111.193 71.6789 114.951 70.6901 115.914 72.958C116.217 73.6747 116.081 74.363 115.688 75.0026L118.028 75C118.526 74.0985 118.696 73.1122 118.315 72.0668C117.784 70.6027 115.839 69.9606 114.447 69.8579C112.341 69.7012 110.122 70.3408 108.154 71.0831C108.897 69.1156 109.536 66.8964 109.38 64.7902C109.277 63.3981 108.635 61.4538 107.171 60.9221C106.125 60.542 105.139 60.7115 104.238 61.2098C103.336 60.7115 102.35 60.542 101.304 60.9221C99.8403 61.4538 99.1982 63.3981 99.0954 64.7902C98.9388 66.8964 99.5783 69.1156 100.321 71.0831C98.3531 70.3408 96.1339 69.7012 94.0278 69.8579C92.6357 69.9606 90.6913 70.6027 90.1596 72.0668C89.7795 73.1147 89.949 74.0985 90.4473 75L92.7872 75.0026C92.3942 74.363 92.2581 73.6747 92.5612 72.958C93.5218 70.6901 97.2821 71.6789 99.4345 72.4315L99.6425 72.5086C99.4473 72.9298 99.2598 73.3536 99.0775 73.78C97.7752 73.2457 95.7898 72.4546 94.6545 73.3125C94.3437 73.5488 94.241 73.8082 94.2923 74.1986C94.3334 74.4889 94.449 74.756 94.6211 75.0026H101.096C101.399 74.2706 101.726 73.5488 102.07 72.8348ZM103.434 65.0574C103.724 65.0985 103.991 65.214 104.238 65.3861C104.482 65.214 104.749 65.0985 105.041 65.0574C105.432 65.006 105.691 65.1087 105.928 65.4195C106.785 66.5548 105.994 68.5402 105.46 69.8425C105.887 70.0248 106.31 70.2123 106.732 70.4075L106.809 70.1995C107.561 68.0471 108.55 64.2868 106.282 63.3262C105.565 63.0231 104.877 63.1592 104.238 63.5522C103.598 63.1592 102.91 63.0231 102.193 63.3262C99.925 64.2894 100.914 68.0471 101.666 70.1995L101.744 70.4075C102.165 70.2123 102.589 70.0248 103.015 69.8425C102.481 68.5402 101.687 66.5522 102.547 65.4195C102.784 65.1062 103.043 65.0034 103.434 65.0574Z" fill="white"/>
<path d="M124.865 18.5188C123.406 17.9974 121.824 17.8947 120.139 18.4007C117.278 19.2637 115.652 22.8236 115.329 25.5437C115.236 26.3091 115.21 27.0899 115.239 27.8733C114.453 27.845 113.674 27.8707 112.909 27.9632C110.189 28.2868 106.629 29.9127 105.766 32.774C105.257 34.4589 105.363 36.0411 105.882 37.5C105.36 38.9589 105.257 40.5411 105.766 42.226C106.629 45.0873 110.189 46.7132 112.909 47.0368C113.674 47.1293 114.455 47.155 115.239 47.1267C115.21 47.9127 115.236 48.6909 115.329 49.4563C115.652 52.1764 117.278 55.7363 120.139 56.5993C121.824 57.1079 123.406 57.0026 124.865 56.4812V54.2286C123.715 54.6293 122.474 54.7166 121.149 54.357C118.241 53.5659 117.013 49.8236 117.008 47.1755C117.006 46.536 117.044 45.8938 117.116 45.2517C116.474 45.3236 115.832 45.3621 115.192 45.3596C112.544 45.3544 108.802 44.1267 108.011 41.2192C107.651 39.8938 107.739 38.6533 108.139 37.5026C107.739 36.3519 107.651 35.1113 108.011 33.786C108.802 30.8784 112.544 29.6507 115.192 29.6455C115.832 29.643 116.474 29.6815 117.116 29.7534C117.044 29.1113 117.006 28.4692 117.008 27.8296C117.013 25.1815 118.244 21.4392 121.149 20.6481C122.474 20.2885 123.715 20.3759 124.865 20.7765V18.5188Z" fill="white"/>
<path fill-rule="evenodd" clip-rule="evenodd" d="M122.698 35.3348C123.412 34.9906 124.133 34.6669 124.865 34.3613V27.8861C124.619 27.714 124.352 27.5985 124.061 27.5574C123.671 27.5034 123.412 27.6062 123.175 27.9195C122.315 29.0522 123.109 31.0402 123.643 32.3425C123.216 32.5248 122.793 32.7123 122.371 32.9075L122.294 32.6995C121.542 30.5471 120.553 26.7894 122.821 25.8262C123.537 25.5231 124.226 25.6592 124.865 26.0522V23.7098C123.964 23.2115 122.978 23.042 121.932 23.4221C120.468 23.9538 119.826 25.8981 119.723 27.2902C119.567 29.3964 120.206 31.6156 120.948 33.583C118.981 32.8408 116.762 32.2012 114.656 32.3579C113.263 32.4606 111.319 33.1027 110.787 34.5668C110.407 35.6147 110.577 36.5985 111.075 37.5C110.577 38.4015 110.407 39.3878 110.787 40.4332C111.319 41.8973 113.263 42.5394 114.656 42.6421C116.762 42.7988 118.981 42.1592 120.948 41.417C120.206 43.3844 119.567 45.6036 119.723 47.7098C119.826 49.1019 120.468 51.0462 121.932 51.5779C122.98 51.958 123.964 51.7885 124.865 51.2902V48.9529C124.226 49.3459 123.537 49.482 122.821 49.1789C120.553 48.2183 121.542 44.4581 122.294 42.3057L122.371 42.0976C122.793 42.2928 123.216 42.4803 123.643 42.6627C123.109 43.9649 122.317 45.9503 123.175 47.0856C123.412 47.3964 123.671 47.4991 124.061 47.4478C124.352 47.4067 124.619 47.2885 124.865 47.119V40.6438C124.133 40.3408 123.412 40.0146 122.698 39.6704C122.353 38.9563 122.03 38.2346 121.724 37.5026C122.027 36.7705 122.353 36.0488 122.698 35.3348ZM114.92 38.3065C114.961 38.0163 115.077 37.7491 115.249 37.5026C115.077 37.256 114.961 36.9889 114.92 36.6986C114.869 36.3082 114.972 36.0488 115.282 35.8125C116.418 34.9546 118.403 35.7457 119.705 36.28C119.888 35.8536 120.075 35.4298 120.27 35.0086L120.062 34.9315C117.91 34.1789 114.15 33.1901 113.189 35.458C112.886 36.1747 113.022 36.863 113.415 37.5026C113.022 38.1421 112.886 38.8305 113.189 39.5471C114.152 41.8151 117.91 40.8262 120.062 40.0736L120.27 39.9966C120.075 39.5753 119.888 39.1515 119.705 38.7252C118.403 39.2594 116.415 40.0531 115.282 39.1926C114.969 38.9563 114.866 38.6969 114.92 38.3065Z" fill="white"/>
</svg>
