<svg width="19" height="31" viewBox="0 0 19 31" fill="none" xmlns="http://www.w3.org/2000/svg">
<g clip-path="url(#clip0_3582_12)">
<path d="M9.32707 5.85204L17.6842 10.5969V20.0867L9.32707 24.8316L0.976353 20.0867V10.5969L9.32707 5.85204ZM2.26207 11.3245V19.3592L9.32707 23.3702L16.3985 19.3529V11.3245L9.32707 7.31347L2.26207 11.3245ZM0.333496 9.4898L8.67778 4.7449V0H7.39207V4.01735L0.333496 8.02837V9.48347V9.4898ZM0.333496 21.1939L8.67778 25.9388V31H7.39207V26.6663L0.333496 22.6553V21.2002V21.1939ZM9.97635 0V4.7449L18.3271 9.4898H18.3335V8.02837H18.3271L11.2621 4.01735V0H9.97635ZM9.97635 31V25.9388L18.3271 21.1939H18.3335V22.6553H18.3271L11.2621 26.6663V31H9.97635Z" fill="white"/>
</g>
<defs>
<clipPath id="clip0_3582_12">
<rect width="18" height="31" fill="white" transform="translate(0.333496)"/>
</clipPath>
</defs>
</svg>
