<svg width="43" height="42" viewBox="0 0 43 42" fill="none" xmlns="http://www.w3.org/2000/svg">
<g clip-path="url(#clip0_3582_4)">
<path fill-rule="evenodd" clip-rule="evenodd" d="M38.5727 0L39.1526 0.579899L38.1626 1.56985L36.5928 0L38.5727 0V0ZM4.0943 0L3.51441 0.579899L4.50435 1.56985L6.0742 0L4.0943 0V0ZM34.6129 0L37.1727 2.5598L36.1827 3.54975L32.633 0L34.6129 0V0ZM8.0541 0L5.4943 2.5598L6.48425 3.54975L10.034 0L8.0541 0V0ZM30.6531 0L35.1928 4.5397L34.2028 5.52965L28.6732 0L30.6531 0V0ZM12.0139 0L7.4742 4.5397L8.46415 5.52965L13.9938 0L12.0139 0V0ZM26.6933 0L33.2129 6.5196L32.2229 7.50955L24.7134 0L26.6933 0V0ZM15.9737 0L9.4541 6.5196L10.4441 7.50955L17.9536 0L15.9737 0V0ZM22.7335 0L31.233 8.49949L30.243 9.48944L21.3335 0.579899L12.424 9.48944L11.434 8.49949L19.9335 0L22.7335 0V0ZM0.532486 0L20.1325 19.6L19.1425 20.5899L0.333496 1.78091V0H0.532486V0ZM0.333496 3.76081L18.1526 21.5799L17.1626 22.5698L0.333496 5.74071L0.333496 3.76081H0.333496ZM0.333496 7.72061L16.1727 23.5598L15.1827 24.5497L0.333496 9.70051L0.333496 7.72061H0.333496ZM0.333496 11.6804L14.1928 25.5397L13.2028 26.5296L0.333496 13.6603L0.333496 11.6804H0.333496ZM0.333496 15.6402L12.2129 27.5196L11.2229 28.5095L0.333496 17.6201V15.6402H0.333496ZM0.333496 19.6L10.233 29.4995L9.24304 30.4894L0.333496 21.5799V19.6ZM0.333496 23.5598L8.25309 31.4794L7.26314 32.4693L0.333496 25.5397V23.5598H0.333496ZM0.333496 27.5196L6.27319 33.4593L5.28324 34.4492L0.333496 29.4995V27.5196H0.333496ZM0.333496 31.4794L4.29329 35.4392L3.30334 36.4291L0.333496 33.4593L0.333496 31.4794H0.333496ZM0.333496 35.4392L2.3134 37.4191L1.32345 38.409L0.333496 37.4191V35.4392H0.333496ZM38.5727 42L21.3335 24.7608L4.0943 42H6.0742L21.3335 26.7407L36.5928 42H38.5727ZM34.6129 42L21.3335 28.7206L8.0541 42H10.034L21.3335 30.7005L32.633 42H34.6129ZM30.6531 42L21.3335 32.6804L12.0139 42H13.9938L21.3335 34.6603L28.6732 42H30.6531ZM26.6933 42L21.3335 36.6402L15.9737 42H17.9536L21.3335 38.6201L24.7134 42H26.6933ZM22.7335 42L21.3335 40.6L19.9335 42H22.7335ZM42.1345 0L22.5345 19.6L23.5245 20.5899L42.3335 1.78091V0H42.1345V0ZM42.3335 3.76081L24.5144 21.5799L25.5044 22.5698L42.3335 5.74071V3.76081ZM42.3335 7.72061L26.4943 23.5598L27.4843 24.5497L42.3335 9.70051V7.72061ZM42.3335 11.6804L28.4742 25.5397L29.4642 26.5296L42.3335 13.6603V11.6804ZM42.3335 15.6402L30.4541 27.5196L31.444 28.5095L42.3335 17.6201V15.6402ZM42.3335 19.6L32.434 29.4995L33.424 30.4894L42.3335 21.5799V19.6ZM42.3335 23.5598L34.4139 31.4794L35.4039 32.4693L42.3335 25.5397V23.5598ZM42.3335 27.5196L36.3938 33.4593L37.3837 34.4492L42.3335 29.4995V27.5196ZM42.3335 31.4794L38.3737 35.4392L39.3636 36.4291L42.3335 33.4593V31.4794ZM42.3335 35.4392L40.3536 37.4191L41.3435 38.409L42.3335 37.4191V35.4392ZM28.2631 11.4693L29.2531 10.4794L21.3335 2.5598L13.4139 10.4794L14.4038 11.4693L21.3335 4.5397L28.2631 11.4693ZM26.2832 13.4492L27.2732 12.4593L21.3335 6.5196L15.3938 12.4593L16.3837 13.4492L21.3335 8.49949L26.2832 13.4492ZM24.3033 15.4291L25.2933 14.4392L21.3335 10.4794L17.3737 14.4392L18.3636 15.4291L21.3335 12.4593L24.3033 15.4291ZM22.3234 17.409L23.3134 16.4191L21.3335 14.4392L19.3536 16.4191L20.3435 17.409L21.3335 16.4191L22.3234 17.409ZM40.1425 41.59L41.1325 40.6L21.3335 20.801L1.53451 40.6L2.52446 41.59L21.3335 22.7809L40.1425 41.59Z" fill="white"/>
</g>
<defs>
<clipPath id="clip0_3582_4">
<rect width="42" height="42" fill="white" transform="translate(0.333496)"/>
</clipPath>
</defs>
</svg>
