<svg width="24" height="24" viewBox="0 0 24 24" fill="none" xmlns="http://www.w3.org/2000/svg">
<path d="M18.586 6.75H18.0703C17.6485 6.75 17.2504 6.85252 16.8985 7.03289V5.01562H15.8782C15.6762 4.16423 15.1168 3.44972 14.3671 3.0412C14.364 1.36378 12.9985 0 11.3203 0C10.517 0 9.76878 0.307078 9.20487 0.854297C8.78159 0.635953 8.30408 0.515625 7.80472 0.515625C6.36814 0.515625 5.16144 1.51528 4.84161 2.85525C3.88798 3.20311 3.15622 4.0147 2.91875 5.01562H2.36722V14.3906C2.36722 15.4585 2.78497 17.1992 3.38309 18.6237C3.97555 20.0346 4.66587 20.9719 5.41409 21.396V24H13.8516V21.396C14.5998 20.9719 15.2901 20.0346 15.8826 18.6237C16.152 17.982 16.3847 17.2762 16.5592 16.5966L19.7079 15.3496C20.8772 14.8865 21.6328 13.7745 21.6328 12.5167V9.79688C21.6328 8.11683 20.266 6.75 18.586 6.75ZM14.3961 5.01562H11.4321C11.6959 4.46184 12.261 4.07812 12.9141 4.07812C13.5672 4.07812 14.1323 4.46184 14.3961 5.01562ZM11.3203 1.40625C12.096 1.40625 12.7471 1.94747 12.9172 2.67197C12.9162 2.67197 12.9151 2.67188 12.9141 2.67188C12.7876 2.67188 12.6632 2.68055 12.5407 2.69559C12.0371 2.08814 11.3148 1.69702 10.5236 1.61166C10.7632 1.47834 11.0353 1.40625 11.3203 1.40625ZM10.1953 3C10.5233 3 10.8361 3.09816 11.0999 3.27253C10.5332 3.69389 10.118 4.30739 9.95005 5.01562H8.84694C8.78867 4.77005 8.70073 4.53595 8.58692 4.31723C8.73748 3.56695 9.40137 3 10.1953 3ZM7.80472 1.92188C8.06277 1.92188 8.3097 1.98197 8.53062 2.09067C8.11817 2.36086 7.77495 2.72808 7.53373 3.15994C7.19553 2.94098 6.81167 2.78733 6.3995 2.71659C6.68708 2.24072 7.20936 1.92188 7.80472 1.92188ZM5.88284 4.07812C6.53595 4.07812 7.10103 4.46184 7.36484 5.01562H4.40084C4.66466 4.46184 5.22973 4.07812 5.88284 4.07812ZM12.4453 22.5938H6.82034V21.6562H12.4453V22.5938ZM15.4922 14.3906C15.4922 15.1326 15.1746 16.6775 14.586 18.0792C13.9563 19.5788 13.2926 20.25 12.9141 20.25H6.35159C5.97312 20.25 5.30937 19.5788 4.6797 18.0792C4.09109 16.6775 3.77347 15.1326 3.77347 14.3906V6.42188H15.4922V14.3906ZM20.2266 12.5167C20.2266 13.194 19.8197 13.7927 19.19 14.0421L16.8985 14.9497V14.3906V9.32812C16.8985 8.68195 17.4242 8.15625 18.0703 8.15625H18.586C19.4906 8.15625 20.2266 8.89223 20.2266 9.79688V12.5167Z" fill="currentColor"/>
</svg>
