<svg width="126" height="68" viewBox="0 0 126 68" fill="none" xmlns="http://www.w3.org/2000/svg">
<path d="M32.4168 4.72903C33.8178 6.0243 35.3642 7.19268 37.1617 7.49403C37.7776 7.59712 38.3327 7.54955 38.8244 7.38301C38.5944 6.91777 38.2375 6.49218 37.7274 6.12739C36.2418 5.07268 34.32 4.80569 32.4168 4.72903ZM25.7289 11.4168C25.803 13.3227 26.0699 15.2418 27.1299 16.7274C27.4921 17.2376 27.9203 17.5945 28.3856 17.8245C28.5521 17.3328 28.5997 16.7777 28.4966 16.1618C28.1926 14.3642 27.0216 12.8178 25.7289 11.4168ZM16.2708 11.4168C14.9756 12.8178 13.8072 14.3642 13.5058 16.1618C13.4027 16.7777 13.4503 17.3328 13.6169 17.8245C14.0821 17.5945 14.5077 17.2376 14.8725 16.7274C15.9272 15.2445 16.1942 13.3227 16.2708 11.4168ZM9.58303 4.72903C7.67714 4.80305 5.75803 5.07003 4.27243 6.13003C3.76226 6.49218 3.40539 6.92041 3.17542 7.38565C3.66709 7.55218 4.22221 7.59977 4.83812 7.49668C6.63564 7.19268 8.18203 6.0243 9.58303 4.72903Z" fill="white"/>
<path d="M74.4167 4.72903C75.8177 6.0243 77.3641 7.19268 79.1617 7.49403C79.7776 7.59712 80.3327 7.54955 80.8244 7.38301C80.5944 6.91777 80.2375 6.49218 79.7273 6.12739C78.2418 5.07268 76.32 4.80569 74.4167 4.72903ZM67.7289 11.4168C67.8029 13.3227 68.0699 15.2418 69.1299 16.7274C69.4921 17.2376 69.9203 17.5945 70.3856 17.8245C70.5521 17.3328 70.5997 16.7777 70.4966 16.1618C70.1926 14.3642 69.0216 12.8178 67.7289 11.4168ZM58.2708 11.4168C56.9756 12.8178 55.8072 14.3642 55.5058 16.1618C55.4027 16.7777 55.4503 17.3328 55.6169 17.8245C56.0821 17.5945 56.5077 17.2376 56.8725 16.7274C57.9272 15.2445 58.1942 13.3227 58.2708 11.4168ZM51.583 4.72903C49.6771 4.80305 47.758 5.07003 46.2724 6.13003C45.7623 6.49218 45.4054 6.92041 45.1754 7.38565C45.6671 7.55218 46.2222 7.59977 46.8381 7.49668C48.6356 7.19268 50.182 6.0243 51.583 4.72903Z" fill="white"/>
<path d="M116.417 4.72903C117.818 6.0243 119.364 7.19268 121.162 7.49403C121.778 7.59712 122.333 7.54955 122.824 7.38301C122.594 6.91777 122.238 6.49218 121.727 6.12739C120.242 5.07268 118.32 4.80569 116.417 4.72903ZM109.729 11.4168C109.803 13.3227 110.07 15.2418 111.13 16.7274C111.492 17.2376 111.92 17.5945 112.386 17.8245C112.552 17.3328 112.6 16.7777 112.497 16.1618C112.193 14.3642 111.022 12.8178 109.729 11.4168ZM100.271 11.4168C98.9756 12.8178 97.8072 14.3642 97.5058 16.1618C97.4027 16.7777 97.4503 17.3328 97.6169 17.8245C98.0821 17.5945 98.5077 17.2376 98.8725 16.7274C99.9272 15.2445 100.194 13.3227 100.271 11.4168ZM93.583 4.72903C91.6771 4.80304 89.758 5.07003 88.2724 6.13003C87.7623 6.49218 87.4054 6.92041 87.1754 7.38565C87.6671 7.55218 88.2222 7.59977 88.8381 7.49668C90.6356 7.19268 92.182 6.0243 93.583 4.72903Z" fill="white"/>
<path d="M4.72895 22.5831C6.02422 21.1821 7.1926 19.6357 7.49395 17.8382C7.59704 17.2223 7.54946 16.6672 7.38293 16.1755C6.91769 16.4055 6.4921 16.7623 6.12731 17.2725C5.06995 18.7581 4.80296 20.6772 4.72895 22.5831ZM11.4168 29.2709C13.3227 29.1969 15.2418 28.9299 16.7274 27.8699C17.2375 27.5078 17.5944 27.0795 17.8244 26.6143C17.3327 26.4478 16.7776 26.4002 16.1617 26.5033C14.3615 26.8073 12.8151 27.9783 11.4168 29.2709ZM11.4168 38.729C12.8178 40.0243 14.3642 41.1927 16.1617 41.494C16.7776 41.5971 17.3327 41.5496 17.8244 41.383C17.5944 40.9178 17.2375 40.4922 16.7274 40.1274C15.2418 39.0727 13.32 38.8057 11.4168 38.729ZM4.72895 45.4169C4.80296 47.3227 5.06994 49.2419 6.12995 50.7275C6.4921 51.2376 6.92033 51.5945 7.38557 51.8245C7.5521 51.3328 7.59969 50.7777 7.49659 50.1618C7.1926 48.3642 6.02157 46.8179 4.72895 45.4169Z" fill="white"/>
<path d="M42 14C40.0915 15.7949 38.9786 18.7 38.6957 21.0685C38.4922 22.784 38.5609 24.5551 38.8173 26.3156C37.7521 24.8882 36.5493 23.5876 35.1932 22.5197C33.3191 21.0447 30.4774 19.7758 27.8578 19.8578C27.7758 22.4774 29.0447 25.3164 30.5197 27.1932C31.5876 28.5493 32.8882 29.7521 34.3156 30.8173C32.5551 30.5609 30.784 30.4922 29.0685 30.6957C26.6973 30.9786 23.7922 32.0888 22 34C23.7949 35.9085 26.7 37.0214 29.0685 37.3043C30.784 37.5078 32.5551 37.4391 34.3156 37.1827C32.8882 38.248 31.5876 39.4507 30.5197 40.8068C29.042 42.6809 27.7758 45.5226 27.8578 48.1422C30.4774 48.2242 33.3164 46.9553 35.1932 45.4803C36.5493 44.4124 37.7521 43.1118 38.8173 41.6844C38.5609 43.4449 38.4922 45.216 38.6957 46.9315C38.9786 49.3027 40.0888 52.2078 42 54C43.9085 52.2051 45.0214 49.3 45.3043 46.9315C45.5078 45.216 45.4391 43.4449 45.1827 41.6844C46.248 43.1118 47.4507 44.4124 48.8068 45.4803C50.6809 46.9553 53.5226 48.2242 56.1422 48.1422C56.2242 45.5226 54.9553 42.6836 53.4803 40.8068C52.4124 39.4507 51.1118 38.248 49.6844 37.1827C51.4449 37.4391 53.216 37.5078 54.9315 37.3043C57.3027 37.0214 60.2078 35.9112 62 34C60.2051 32.0915 57.3 30.9786 54.9315 30.6957C53.216 30.4922 51.4449 30.5609 49.6844 30.8173C51.1118 29.7521 52.4124 28.5493 53.4803 27.1932C54.958 25.3191 56.2242 22.4774 56.1422 19.8578C53.5226 19.7758 50.6836 21.0447 48.8068 22.5197C47.4507 23.5876 46.248 24.8882 45.1827 26.3156C45.4391 24.5551 45.5078 22.784 45.3043 21.0685C45.0188 18.7 43.9085 15.7949 42 14ZM42 31.391C41.2149 28.9352 40.6942 26.35 40.6994 23.7912C40.7021 22.1311 41.1092 20.1063 42 18.4251C42.8908 20.1063 43.2979 22.1285 43.3006 23.7912C43.3058 26.3526 42.7851 28.9352 42 31.391ZM43.8425 32.1549C45.0241 29.8631 46.4832 27.6664 48.2966 25.861C49.4729 24.6899 51.1911 23.5453 53.0098 22.9876C52.4494 24.8062 51.3074 26.5245 50.1364 27.7008C48.331 29.5168 46.1369 30.9733 43.8425 32.1549ZM44.6064 34C47.0621 33.2149 49.6474 32.6942 52.2062 32.6995C53.8662 32.7021 55.8911 33.1092 57.5723 34C55.8911 34.8908 53.8689 35.2979 52.2062 35.3006C49.6474 35.3058 47.0648 34.7851 44.6064 34ZM43.8425 35.8451C46.1343 37.0267 48.331 38.4859 50.1364 40.2992C51.3074 41.4756 52.452 43.1938 53.0098 45.0124C51.1911 44.452 49.4729 43.3101 48.2966 42.139C46.4832 40.3336 45.0241 38.1369 43.8425 35.8451ZM42 36.609C42.7851 39.0648 43.3058 41.65 43.3006 44.2088C43.2979 45.8689 42.8908 47.8937 42 49.5749C41.1092 47.8937 40.7021 45.8715 40.6994 44.2088C40.6915 41.65 41.2123 39.0674 42 36.609ZM40.1549 35.8451C38.9733 38.1369 37.5141 40.3336 35.7008 42.139C34.5245 43.3101 32.8062 44.4547 30.9876 45.0124C31.548 43.1938 32.6899 41.4756 33.861 40.2992C35.6664 38.4859 37.8604 37.0267 40.1549 35.8451ZM39.391 34C36.9352 34.7851 34.35 35.3058 31.7912 35.3006C30.1311 35.2979 28.1063 34.8908 26.4251 34C28.1063 33.1092 30.1285 32.7021 31.7912 32.6995C34.35 32.6942 36.9326 33.2149 39.391 34ZM40.1549 32.1549C37.8631 30.9733 35.6664 29.5141 33.861 27.7008C32.6899 26.5245 31.5453 24.8062 30.9876 22.9876C32.8062 23.548 34.5245 24.6899 35.7008 25.861C37.5141 27.6691 38.9733 29.8631 40.1549 32.1549Z" fill="white"/>
<path d="M37.2708 22.5831C37.1968 20.6772 36.9298 18.7581 35.8698 17.2725C35.5077 16.7623 35.0795 16.4055 34.6142 16.1755C34.4477 16.6672 34.4001 17.2223 34.5032 17.8382C34.8072 19.6357 35.9756 21.1821 37.2708 22.5831ZM46.7289 22.5831C48.0242 21.1821 49.1926 19.6357 49.4939 17.8382C49.597 17.2223 49.5495 16.6672 49.3829 16.1755C48.9177 16.4055 48.4921 16.7623 48.1273 17.2725C47.0699 18.7581 46.803 20.6772 46.7289 22.5831ZM53.4167 29.2709C55.3226 29.1969 57.2418 28.9299 58.7274 27.8699C59.2375 27.5078 59.5944 27.0795 59.8244 26.6143C59.3327 26.4478 58.7776 26.4002 58.1617 26.5033C56.3615 26.8073 54.8151 27.9783 53.4167 29.2709ZM53.4167 38.729C54.8178 40.0243 56.3642 41.1927 58.1617 41.494C58.7776 41.5971 59.3327 41.5496 59.8244 41.383C59.5944 40.9178 59.2375 40.4922 58.7274 40.1274C57.2418 39.0727 55.32 38.8057 53.4167 38.729ZM46.7289 45.4169C46.803 47.3227 47.0699 49.2419 48.1299 50.7275C48.4921 51.2376 48.9203 51.5945 49.3856 51.8245C49.5521 51.3328 49.5997 50.7777 49.4966 50.1618C49.1926 48.3642 48.0216 46.8179 46.7289 45.4169ZM37.2708 45.4169C35.9756 46.8179 34.8072 48.3642 34.5058 50.1618C34.4028 50.7777 34.4503 51.3328 34.6169 51.8245C35.0821 51.5945 35.5077 51.2376 35.8725 50.7275C36.9272 49.2445 37.1942 47.3227 37.2708 45.4169ZM30.583 38.729C28.6771 38.8031 26.758 39.07 25.2724 40.13C24.7623 40.4922 24.4054 40.9204 24.1754 41.3857C24.6671 41.5522 25.2222 41.5998 25.8381 41.4967C27.6356 41.1927 29.182 40.0243 30.583 38.729ZM30.583 29.2709C29.182 27.9757 27.6356 26.8073 25.8381 26.5059C25.2222 26.4028 24.6671 26.4504 24.1754 26.617C24.4054 27.0822 24.7623 27.5078 25.2724 27.8726C26.7554 28.9299 28.6771 29.1969 30.583 29.2709Z" fill="white"/>
<path d="M84 14C82.0915 15.7949 80.9786 18.7 80.6957 21.0685C80.4922 22.784 80.5609 24.5551 80.8173 26.3156C79.7521 24.8882 78.5493 23.5876 77.1932 22.5197C75.3191 21.0447 72.4774 19.7758 69.8578 19.8578C69.7758 22.4774 71.0447 25.3164 72.5197 27.1932C73.5876 28.5493 74.8882 29.7521 76.3156 30.8173C74.5551 30.5609 72.784 30.4922 71.0685 30.6957C68.6973 30.9786 65.7922 32.0888 64 34C65.7949 35.9085 68.7 37.0214 71.0685 37.3043C72.784 37.5078 74.5551 37.4391 76.3156 37.1827C74.8882 38.248 73.5876 39.4507 72.5197 40.8068C71.042 42.6809 69.7758 45.5226 69.8578 48.1422C72.4774 48.2242 75.3164 46.9553 77.1932 45.4803C78.5493 44.4124 79.7521 43.1118 80.8173 41.6844C80.5609 43.4449 80.4922 45.216 80.6957 46.9315C80.9786 49.3027 82.0888 52.2078 84 54C85.9085 52.2051 87.0214 49.3 87.3043 46.9315C87.5078 45.216 87.4391 43.4449 87.1827 41.6844C88.248 43.1118 89.4507 44.4124 90.8068 45.4803C92.6809 46.9553 95.5226 48.2242 98.1422 48.1422C98.2242 45.5226 96.9553 42.6836 95.4803 40.8068C94.4124 39.4507 93.1118 38.248 91.6844 37.1827C93.4449 37.4391 95.216 37.5078 96.9315 37.3043C99.3027 37.0214 102.208 35.9112 104 34C102.205 32.0915 99.3 30.9786 96.9315 30.6957C95.216 30.4922 93.4449 30.5609 91.6844 30.8173C93.1118 29.7521 94.4124 28.5493 95.4803 27.1932C96.958 25.3191 98.2242 22.4774 98.1422 19.8578C95.5226 19.7758 92.6836 21.0447 90.8068 22.5197C89.4507 23.5876 88.248 24.8882 87.1827 26.3156C87.4391 24.5551 87.5078 22.784 87.3043 21.0685C87.0188 18.7 85.9085 15.7949 84 14ZM84 31.391C83.2149 28.9352 82.6942 26.35 82.6994 23.7912C82.7021 22.1311 83.1092 20.1063 84 18.4251C84.8908 20.1063 85.2979 22.1285 85.3006 23.7912C85.3058 26.3526 84.7851 28.9352 84 31.391ZM85.8425 32.1549C87.0241 29.8631 88.4832 27.6664 90.2966 25.861C91.4729 24.6899 93.1911 23.5453 95.0098 22.9876C94.4494 24.8062 93.3074 26.5245 92.1364 27.7008C90.331 29.5168 88.1369 30.9733 85.8425 32.1549ZM86.6064 34C89.0621 33.2149 91.6474 32.6942 94.2062 32.6995C95.8662 32.7021 97.8911 33.1092 99.5723 34C97.8911 34.8908 95.8689 35.2979 94.2062 35.3006C91.6474 35.3058 89.0648 34.7851 86.6064 34ZM85.8425 35.8451C88.1343 37.0267 90.331 38.4859 92.1364 40.2992C93.3074 41.4756 94.452 43.1938 95.0098 45.0124C93.1911 44.452 91.4729 43.3101 90.2966 42.139C88.4832 40.3336 87.0241 38.1369 85.8425 35.8451ZM84 36.609C84.7851 39.0648 85.3058 41.65 85.3006 44.2088C85.2979 45.8689 84.8908 47.8937 84 49.5749C83.1092 47.8937 82.7021 45.8715 82.6994 44.2088C82.6915 41.65 83.2123 39.0674 84 36.609ZM82.1549 35.8451C80.9733 38.1369 79.5141 40.3336 77.7008 42.139C76.5245 43.3101 74.8062 44.4547 72.9876 45.0124C73.548 43.1938 74.6899 41.4756 75.861 40.2992C77.6664 38.4859 79.8604 37.0267 82.1549 35.8451ZM81.391 34C78.9352 34.7851 76.35 35.3058 73.7912 35.3006C72.1311 35.2979 70.1063 34.8908 68.4251 34C70.1063 33.1092 72.1285 32.7021 73.7912 32.6995C76.35 32.6942 78.9326 33.2149 81.391 34ZM82.1549 32.1549C79.8631 30.9733 77.6664 29.5141 75.861 27.7008C74.6899 26.5245 73.5453 24.8062 72.9876 22.9876C74.8062 23.548 76.5245 24.6899 77.7008 25.861C79.5141 27.6691 80.9733 29.8631 82.1549 32.1549Z" fill="white"/>
<path d="M79.2709 22.5831C79.1968 20.6772 78.9299 18.7581 77.8699 17.2725C77.5077 16.7623 77.0795 16.4055 76.6142 16.1755C76.4477 16.6672 76.4001 17.2223 76.5032 17.8382C76.8072 19.6357 77.9756 21.1821 79.2709 22.5831ZM88.729 22.5831C90.0242 21.1821 91.1926 19.6357 91.494 17.8382C91.5971 17.2223 91.5495 16.6672 91.3829 16.1755C90.9177 16.4055 90.4921 16.7623 90.1273 17.2725C89.07 18.7581 88.803 20.6772 88.729 22.5831ZM95.4168 29.2709C97.3227 29.1969 99.2418 28.9299 100.727 27.8699C101.238 27.5078 101.594 27.0795 101.824 26.6143C101.333 26.4478 100.778 26.4002 100.162 26.5033C98.3615 26.8073 96.8151 27.9783 95.4168 29.2709ZM95.4168 38.729C96.8178 40.0243 98.3642 41.1927 100.162 41.494C100.778 41.5971 101.333 41.5496 101.824 41.383C101.594 40.9178 101.238 40.4922 100.727 40.1274C99.2418 39.0727 97.32 38.8057 95.4168 38.729ZM88.729 45.4169C88.803 47.3227 89.07 49.2419 90.13 50.7275C90.4921 51.2376 90.9203 51.5945 91.3856 51.8245C91.5521 51.3328 91.5997 50.7777 91.4966 50.1618C91.1926 48.3642 90.0216 46.8179 88.729 45.4169ZM79.2709 45.4169C77.9756 46.8179 76.8072 48.3642 76.5059 50.1618C76.4028 50.7777 76.4503 51.3328 76.6169 51.8245C77.0821 51.5945 77.5077 51.2376 77.8725 50.7275C78.9272 49.2445 79.1942 47.3227 79.2709 45.4169ZM72.583 38.729C70.6771 38.8031 68.758 39.07 67.2724 40.13C66.7623 40.4922 66.4054 40.9204 66.1754 41.3857C66.6671 41.5522 67.2222 41.5998 67.8381 41.4967C69.6356 41.1927 71.182 40.0243 72.583 38.729ZM72.583 29.2709C71.182 27.9757 69.6356 26.8073 67.8381 26.5059C67.2222 26.4028 66.6671 26.4504 66.1754 26.617C66.4054 27.0822 66.7623 27.5078 67.2724 27.8726C68.7554 28.9299 70.6771 29.1969 72.583 29.2709Z" fill="white"/>
<path d="M121.271 22.5831C121.197 20.6772 120.93 18.7581 119.87 17.2725C119.508 16.7623 119.08 16.4055 118.614 16.1755C118.448 16.6672 118.4 17.2223 118.503 17.8382C118.807 19.6357 119.976 21.1821 121.271 22.5831ZM121.271 45.4169C119.976 46.8179 118.807 48.3642 118.506 50.1618C118.403 50.7777 118.45 51.3328 118.617 51.8245C119.082 51.5945 119.508 51.2376 119.873 50.7275C120.927 49.2445 121.194 47.3227 121.271 45.4169ZM114.583 38.729C112.677 38.8031 110.758 39.07 109.272 40.13C108.762 40.4922 108.405 40.9204 108.175 41.3857C108.667 41.5522 109.222 41.5998 109.838 41.4967C111.636 41.1927 113.182 40.0243 114.583 38.729ZM114.583 29.2709C113.182 27.9757 111.636 26.8073 109.838 26.5059C109.222 26.4028 108.667 26.4504 108.175 26.617C108.405 27.0822 108.762 27.5078 109.272 27.8726C110.755 28.9299 112.677 29.1969 114.583 29.2709Z" fill="white"/>
<path d="M16.2708 56.5831C16.1968 54.6772 15.9298 52.7581 14.8698 51.2725C14.5077 50.7624 14.0795 50.4055 13.6142 50.1755C13.4477 50.6672 13.4001 51.2223 13.5032 51.8382C13.8072 53.6357 14.9756 55.1821 16.2708 56.5831ZM25.729 56.5831C27.0242 55.1821 28.1926 53.6357 28.494 51.8382C28.597 51.2223 28.5495 50.6672 28.3829 50.1755C27.9177 50.4055 27.4921 50.7624 27.1273 51.2725C26.07 52.7581 25.803 54.6772 25.729 56.5831ZM32.4168 63.271C34.3227 63.1969 36.2418 62.93 37.7274 61.87C38.2375 61.5078 38.5944 61.0796 38.8244 60.6143C38.3327 60.4478 37.7776 60.4002 37.1617 60.5033C35.3615 60.8073 33.8151 61.9783 32.4168 63.271ZM9.58303 63.271C8.18203 61.9757 6.63564 60.8073 4.83812 60.506C4.22221 60.4029 3.66709 60.4504 3.17542 60.617C3.40539 61.0822 3.76226 61.5078 4.27243 61.8726C5.75538 62.93 7.67714 63.1969 9.58303 63.271Z" fill="white"/>
<path d="M58.2708 56.5831C58.1968 54.6772 57.9298 52.7581 56.8698 51.2725C56.5077 50.7624 56.0795 50.4055 55.6142 50.1755C55.4477 50.6672 55.4001 51.2223 55.5032 51.8382C55.8072 53.6357 56.9756 55.1821 58.2708 56.5831ZM67.729 56.5831C69.0242 55.1821 70.1926 53.6357 70.4939 51.8382C70.597 51.2223 70.5495 50.6672 70.3829 50.1755C69.9177 50.4055 69.4921 50.7624 69.1273 51.2725C68.0699 52.7581 67.803 54.6772 67.729 56.5831ZM74.4168 63.271C76.3227 63.1969 78.2418 62.93 79.7274 61.87C80.2375 61.5078 80.5944 61.0796 80.8244 60.6143C80.3327 60.4478 79.7776 60.4002 79.1617 60.5033C77.3615 60.8073 75.8151 61.9783 74.4168 63.271ZM51.583 63.271C50.182 61.9757 48.6356 60.8073 46.8381 60.506C46.2222 60.4029 45.6671 60.4504 45.1754 60.617C45.4054 61.0822 45.7623 61.5078 46.2724 61.8726C47.7554 62.93 49.6771 63.1969 51.583 63.271Z" fill="white"/>
<path d="M100.271 56.5831C100.197 54.6772 99.9298 52.7581 98.8698 51.2725C98.5077 50.7624 98.0795 50.4055 97.6142 50.1755C97.4477 50.6672 97.4001 51.2223 97.5032 51.8382C97.8072 53.6357 98.9756 55.1821 100.271 56.5831ZM109.729 56.5831C111.024 55.1821 112.193 53.6357 112.494 51.8382C112.597 51.2223 112.549 50.6672 112.383 50.1755C111.918 50.4055 111.492 50.7624 111.127 51.2725C110.07 52.7581 109.803 54.6772 109.729 56.5831ZM116.417 63.271C118.323 63.1969 120.242 62.93 121.727 61.87C122.238 61.5078 122.594 61.0796 122.824 60.6143C122.333 60.4478 121.778 60.4002 121.162 60.5033C119.361 60.8073 117.815 61.9783 116.417 63.271ZM93.583 63.271C92.182 61.9757 90.6356 60.8073 88.8381 60.506C88.2222 60.4029 87.6671 60.4504 87.1754 60.617C87.4054 61.0822 87.7623 61.5078 88.2724 61.8726C89.7554 62.93 91.6771 63.1969 93.583 63.271Z" fill="white"/>
<path fill-rule="evenodd" clip-rule="evenodd" d="M85 0C86.7949 1.90854 89.7 3.02141 92.0685 3.30426C93.784 3.5078 95.5551 3.43907 97.3156 3.18266C95.8882 4.24796 94.5876 5.4507 93.5197 6.80677C92.042 8.68094 90.7758 11.5226 90.8578 14.1422C93.4774 14.2242 96.3164 12.9553 98.1932 11.4803C99.5493 10.4124 100.752 9.11182 101.817 7.68438C101.561 9.44489 101.492 11.216 101.696 12.9315C101.979 15.3027 103.089 18.2078 105 20C106.909 18.2051 108.021 15.3 108.304 12.9315C108.508 11.216 108.439 9.44489 108.183 7.68438C109.248 9.11182 110.451 10.4124 111.807 11.4803C113.681 12.9553 116.523 14.2242 119.142 14.1422C119.224 11.5226 117.955 8.68359 116.48 6.80677C115.412 5.4507 114.112 4.24796 112.684 3.18266C114.445 3.43907 116.216 3.5078 117.932 3.30426C120.303 3.02141 123.208 1.91118 125 0H120.572C118.891 0.890828 116.869 1.29792 115.206 1.30056C112.647 1.30585 110.065 0.785091 107.606 0H102.391C99.9352 0.785091 97.35 1.30585 94.7912 1.30056C93.1311 1.29792 91.1063 0.890828 89.4251 0H85ZM113.136 6.29924C111.331 4.48586 109.134 3.0267 106.842 1.8451C108.024 4.13693 109.483 6.3336 111.297 8.13905C112.473 9.31008 114.191 10.452 116.01 11.0124C115.452 9.19377 114.307 7.47556 113.136 6.29924ZM106.301 10.2088C106.306 7.65002 105.785 5.06477 105 2.60905C104.212 5.06742 103.692 7.65002 103.699 10.2088C103.702 11.8715 104.109 13.8937 105 15.5749C105.891 13.8937 106.298 11.8689 106.301 10.2088ZM98.7008 8.13905C100.514 6.3336 101.973 4.13693 103.155 1.8451C100.86 3.0267 98.6664 4.48586 96.861 6.29924C95.6899 7.47556 94.548 9.19377 93.9876 11.0124C95.8062 10.4547 97.5245 9.31008 98.7008 8.13905Z" fill="white"/>
<path fill-rule="evenodd" clip-rule="evenodd" d="M43 0C44.7949 1.90854 47.7 3.02141 50.0685 3.30426C51.784 3.5078 53.5551 3.43907 55.3156 3.18266C53.8882 4.24796 52.5876 5.4507 51.5197 6.80677C50.042 8.68094 48.7758 11.5226 48.8578 14.1422C51.4774 14.2242 54.3164 12.9553 56.1932 11.4803C57.5493 10.4124 58.7521 9.11182 59.8173 7.68438C59.5609 9.44489 59.4922 11.216 59.6957 12.9315C59.9786 15.3027 61.0888 18.2078 63 20C64.9085 18.2051 66.0214 15.3 66.3043 12.9315C66.5078 11.216 66.4391 9.44489 66.1827 7.68438C67.248 9.11182 68.4507 10.4124 69.8068 11.4803C71.6809 12.9553 74.5226 14.2242 77.1422 14.1422C77.2242 11.5226 75.9553 8.68359 74.4803 6.80677C73.4124 5.4507 72.1118 4.24796 70.6844 3.18266C72.4449 3.43907 74.216 3.5078 75.9315 3.30426C78.3027 3.02141 81.2078 1.91118 83 0H78.5723C76.8911 0.890828 74.8689 1.29792 73.2062 1.30056C70.6474 1.30585 68.0648 0.785091 65.6064 0H60.391C57.9352 0.785091 55.35 1.30585 52.7912 1.30056C51.1311 1.29792 49.1063 0.890828 47.4251 0H43ZM71.1364 6.29924C69.331 4.48586 67.1343 3.0267 64.8425 1.8451C66.0241 4.13693 67.4832 6.3336 69.2966 8.13905C70.4729 9.31008 72.1911 10.452 74.0098 11.0124C73.452 9.19377 72.3074 7.47556 71.1364 6.29924ZM64.3006 10.2088C64.3058 7.65002 63.7851 5.06477 63 2.60905C62.2123 5.06742 61.6915 7.65002 61.6994 10.2088C61.7021 11.8715 62.1092 13.8937 63 15.5749C63.8908 13.8937 64.2979 11.8689 64.3006 10.2088ZM56.7008 8.13905C58.5141 6.3336 59.9733 4.13693 61.1549 1.8451C58.8604 3.0267 56.6664 4.48586 54.861 6.29924C53.6899 7.47556 52.548 9.19377 51.9876 11.0124C53.8062 10.4547 55.5245 9.31008 56.7008 8.13905Z" fill="white"/>
<path fill-rule="evenodd" clip-rule="evenodd" d="M1 0C2.79487 1.90854 5.69998 3.02141 8.06847 3.30426C9.78404 3.5078 11.5551 3.43907 13.3156 3.18266C11.8882 4.24796 10.5876 5.4507 9.5197 6.80677C8.04203 8.68094 6.77584 11.5226 6.85779 14.1422C9.4774 14.2242 12.3164 12.9553 14.1932 11.4803C15.5493 10.4124 16.7521 9.11182 17.8173 7.68438C17.5609 9.44489 17.4922 11.216 17.6957 12.9315C17.9786 15.3027 19.0888 18.2078 21 20C22.9085 18.2051 24.0214 15.3 24.3043 12.9315C24.5078 11.216 24.4391 9.44489 24.1827 7.68438C25.248 9.11182 26.4507 10.4124 27.8068 11.4803C29.6809 12.9553 32.5226 14.2242 35.1422 14.1422C35.2242 11.5226 33.9553 8.68359 32.4803 6.80677C31.4124 5.4507 30.1118 4.24796 28.6844 3.18266C30.4449 3.43907 32.216 3.5078 33.9315 3.30426C36.3027 3.02141 39.2078 1.91118 41 0H36.5723C34.8911 0.890828 32.8689 1.29792 31.2062 1.30056C28.6474 1.30585 26.0648 0.785091 23.6064 0H18.391C15.9352 0.785091 13.35 1.30585 10.7912 1.30056C9.13112 1.29792 7.10627 0.890828 5.42506 0H1ZM29.1364 6.29924C27.331 4.48586 25.1343 3.0267 22.8425 1.8451C24.0241 4.13693 25.4832 6.3336 27.2966 8.13905C28.4729 9.31008 30.1911 10.452 32.0098 11.0124C31.452 9.19377 30.3074 7.47556 29.1364 6.29924ZM22.3006 10.2088C22.3058 7.65002 21.7851 5.06477 21 2.60905C20.2123 5.06742 19.6915 7.65002 19.6994 10.2088C19.7021 11.8715 20.1092 13.8937 21 15.5749C21.8908 13.8937 22.2979 11.8689 22.3006 10.2088ZM14.7008 8.13905C16.5141 6.3336 17.9733 4.13693 19.1549 1.8451C16.8604 3.0267 14.6664 4.48586 12.861 6.29924C11.6899 7.47556 10.548 9.19377 9.98758 11.0124C11.8062 10.4547 13.5245 9.31008 14.7008 8.13905Z" fill="white"/>
<path fill-rule="evenodd" clip-rule="evenodd" d="M105 48C103.091 49.7949 101.979 52.7 101.696 55.0685C101.492 56.784 101.561 58.5551 101.817 60.3156C100.752 58.8882 99.5493 57.5876 98.1932 56.5197C96.3191 55.0447 93.4774 53.7758 90.8578 53.8578C90.7758 56.4774 92.0447 59.3164 93.5197 61.1932C94.5876 62.5493 95.8882 63.7521 97.3156 64.8174C95.5551 64.5609 93.784 64.4922 92.0685 64.6957C89.6973 64.9786 86.7922 66.0888 85 68H89.4251C91.1063 67.1092 93.1285 66.7021 94.7912 66.6994C97.35 66.6942 99.9326 67.2149 102.391 68H107.606C110.062 67.2149 112.647 66.6942 115.206 66.6994C116.866 66.7021 118.891 67.1092 120.572 68H125C123.205 66.0915 120.3 64.9786 117.932 64.6957C116.216 64.4922 114.445 64.5609 112.684 64.8174C114.112 63.7521 115.412 62.5493 116.48 61.1932C117.958 59.3191 119.224 56.4774 119.142 53.8578C116.523 53.7758 113.684 55.0447 111.807 56.5197C110.451 57.5876 109.248 58.8882 108.183 60.3156C108.439 58.5551 108.508 56.784 108.304 55.0685C108.019 52.7 106.909 49.7949 105 48ZM103.699 57.7912C103.694 60.35 104.215 62.9352 105 65.391C105.785 62.9352 106.306 60.3526 106.301 57.7912C106.298 56.1285 105.891 54.1063 105 52.4251C104.109 54.1063 103.702 56.1311 103.699 57.7912ZM111.297 59.861C109.483 61.6664 108.024 63.8631 106.842 66.1549C109.137 64.9733 111.331 63.5168 113.136 61.7008C114.307 60.5245 115.449 58.8062 116.01 56.9876C114.191 57.5453 112.473 58.6899 111.297 59.861ZM96.861 61.7008C98.6664 63.5141 100.863 64.9733 103.155 66.1549C101.973 63.8631 100.514 61.669 98.7008 59.861C97.5245 58.6899 95.8062 57.548 93.9876 56.9876C94.5453 58.8062 95.6899 60.5245 96.861 61.7008Z" fill="white"/>
<path fill-rule="evenodd" clip-rule="evenodd" d="M63 48C61.0915 49.7949 59.9786 52.7 59.6957 55.0685C59.4922 56.784 59.5609 58.5551 59.8173 60.3156C58.7521 58.8882 57.5493 57.5876 56.1932 56.5197C54.3191 55.0447 51.4774 53.7758 48.8578 53.8578C48.7758 56.4774 50.0447 59.3164 51.5197 61.1932C52.5876 62.5493 53.8882 63.7521 55.3156 64.8174C53.5551 64.5609 51.784 64.4922 50.0685 64.6957C47.6973 64.9786 44.7922 66.0888 43 68H47.4251C49.1063 67.1092 51.1285 66.7021 52.7912 66.6994C55.35 66.6942 57.9326 67.2149 60.391 68H65.6064C68.0621 67.2149 70.6474 66.6942 73.2062 66.6994C74.8662 66.7021 76.8911 67.1092 78.5723 68H83C81.2051 66.0915 78.3 64.9786 75.9315 64.6957C74.216 64.4922 72.4449 64.5609 70.6844 64.8174C72.1118 63.7521 73.4124 62.5493 74.4803 61.1932C75.958 59.3191 77.2242 56.4774 77.1422 53.8578C74.5226 53.7758 71.6836 55.0447 69.8068 56.5197C68.4507 57.5876 67.248 58.8882 66.1827 60.3156C66.4391 58.5551 66.5078 56.784 66.3043 55.0685C66.0188 52.7 64.9085 49.7949 63 48ZM61.6994 57.7912C61.6942 60.35 62.2149 62.9352 63 65.391C63.7851 62.9352 64.3058 60.3526 64.3006 57.7912C64.2979 56.1285 63.8908 54.1063 63 52.4251C62.1092 54.1063 61.7021 56.1311 61.6994 57.7912ZM69.2966 59.861C67.4832 61.6664 66.0241 63.8631 64.8425 66.1549C67.1369 64.9733 69.331 63.5168 71.1364 61.7008C72.3074 60.5245 73.4494 58.8062 74.0098 56.9876C72.1911 57.5453 70.4729 58.6899 69.2966 59.861ZM54.861 61.7008C56.6664 63.5141 58.8631 64.9733 61.1549 66.1549C59.9733 63.8631 58.5141 61.669 56.7008 59.861C55.5245 58.6899 53.8062 57.548 51.9876 56.9876C52.5453 58.8062 53.6899 60.5245 54.861 61.7008Z" fill="white"/>
<path fill-rule="evenodd" clip-rule="evenodd" d="M21 48C19.0915 49.7949 17.9786 52.7 17.6957 55.0685C17.4922 56.784 17.5609 58.5551 17.8173 60.3156C16.7521 58.8882 15.5493 57.5876 14.1932 56.5197C12.3191 55.0447 9.4774 53.7758 6.85779 53.8578C6.77584 56.4774 8.04468 59.3164 9.5197 61.1932C10.5876 62.5493 11.8882 63.7521 13.3156 64.8174C11.5551 64.5609 9.78404 64.4922 8.06847 64.6957C5.69733 64.9786 2.79223 66.0888 1 68H5.42506C7.10627 67.1092 9.12847 66.7021 10.7912 66.6994C13.35 66.6942 15.9326 67.2149 18.391 68H23.6064C26.0621 67.2149 28.6474 66.6942 31.2062 66.6994C32.8662 66.7021 34.8911 67.1092 36.5723 68H41C39.2051 66.0915 36.3 64.9786 33.9315 64.6957C32.216 64.4922 30.4449 64.5609 28.6844 64.8174C30.1118 63.7521 31.4124 62.5493 32.4803 61.1932C33.958 59.3191 35.2242 56.4774 35.1422 53.8578C32.5226 53.7758 29.6836 55.0447 27.8068 56.5197C26.4507 57.5876 25.248 58.8882 24.1827 60.3156C24.4391 58.5551 24.5078 56.784 24.3043 55.0685C24.0188 52.7 22.9085 49.7949 21 48ZM19.6994 57.7912C19.6942 60.35 20.2149 62.9352 21 65.391C21.7851 62.9352 22.3058 60.3526 22.3006 57.7912C22.2979 56.1285 21.8908 54.1063 21 52.4251C20.1092 54.1063 19.7021 56.1311 19.6994 57.7912ZM27.2966 59.861C25.4832 61.6664 24.0241 63.8631 22.8425 66.1549C25.1369 64.9733 27.331 63.5168 29.1364 61.7008C30.3074 60.5245 31.4494 58.8062 32.0098 56.9876C30.1911 57.5453 28.4729 58.6899 27.2966 59.861ZM12.861 61.7008C14.6664 63.5141 16.8631 64.9733 19.1549 66.1549C17.9733 63.8631 16.5141 61.669 14.7008 59.861C13.5245 58.6899 11.8062 57.548 9.98758 56.9876C10.5453 58.8062 11.6899 60.5245 12.861 61.7008Z" fill="white"/>
<path fill-rule="evenodd" clip-rule="evenodd" d="M126 14C124.091 15.7949 122.979 18.7 122.696 21.0685C122.492 22.784 122.561 24.5551 122.817 26.3156C121.752 24.8882 120.549 23.5876 119.193 22.5197C117.319 21.0447 114.477 19.7758 111.858 19.8578C111.776 22.4774 113.045 25.3164 114.52 27.1932C115.588 28.5493 116.888 29.7521 118.316 30.8173C116.555 30.5609 114.784 30.4922 113.068 30.6957C110.697 30.9786 107.792 32.0888 106 34C107.795 35.9085 110.7 37.0214 113.068 37.3043C114.784 37.5078 116.555 37.4391 118.316 37.1827C116.888 38.248 115.588 39.4507 114.52 40.8068C113.042 42.6809 111.776 45.5226 111.858 48.1422C114.477 48.2242 117.316 46.9553 119.193 45.4803C120.549 44.4124 121.752 43.1118 122.817 41.6844C122.561 43.4449 122.492 45.216 122.696 46.9315C122.979 49.3027 124.089 52.2078 126 54V49.5749C125.109 47.8937 124.702 45.8715 124.699 44.2088C124.692 41.65 125.212 39.0674 126 36.609V31.391C125.215 28.9352 124.694 26.35 124.699 23.7912C124.702 22.1311 125.109 20.1063 126 18.4251V14ZM119.701 42.139C121.514 40.3336 122.973 38.1369 124.155 35.8451C121.86 37.0267 119.666 38.4859 117.861 40.2992C116.69 41.4756 115.548 43.1938 114.988 45.0124C116.806 44.4547 118.524 43.3101 119.701 42.139ZM115.791 35.3006C118.35 35.3058 120.935 34.7851 123.391 34C120.933 33.2149 118.35 32.6942 115.791 32.6995C114.128 32.7021 112.106 33.1092 110.425 34C112.106 34.8908 114.131 35.2979 115.791 35.3006ZM117.861 27.7008C119.666 29.5141 121.863 30.9733 124.155 32.1549C122.973 29.8631 121.514 27.6691 119.701 25.861C118.524 24.6899 116.806 23.548 114.988 22.9876C115.545 24.8062 116.69 26.5245 117.861 27.7008Z" fill="white"/>
<path fill-rule="evenodd" clip-rule="evenodd" d="M0 54C1.90854 52.2051 3.02141 49.3 3.30426 46.9315C3.5078 45.216 3.43907 43.4449 3.18266 41.6844C4.24796 43.1118 5.4507 44.4124 6.80677 45.4803C8.68094 46.9553 11.5226 48.2242 14.1422 48.1422C14.2242 45.5226 12.9553 42.6836 11.4803 40.8068C10.4124 39.4507 9.11182 38.248 7.68438 37.1827C9.44489 37.4391 11.216 37.5078 12.9315 37.3043C15.3027 37.0214 18.2078 35.9112 20 34C18.2051 32.0915 15.3 30.9786 12.9315 30.6957C11.216 30.4922 9.44489 30.5609 7.68438 30.8173C9.11182 29.7521 10.4124 28.5493 11.4803 27.1932C12.958 25.3191 14.2242 22.4774 14.1422 19.8578C11.5226 19.7758 8.68359 21.0447 6.80677 22.5197C5.4507 23.5876 4.24796 24.8882 3.18266 26.3156C3.43907 24.5551 3.5078 22.784 3.30426 21.0685C3.01877 18.7 1.90854 15.7949 0 14V18.4251C0.890827 20.1063 1.29792 22.1285 1.30056 23.7912C1.30585 26.3526 0.785091 28.9352 0 31.391V36.609C0.785091 39.0648 1.30585 41.65 1.30056 44.2088C1.29792 45.8689 0.890827 47.8937 0 49.5749V54ZM6.29659 25.861C4.48322 27.6664 3.02406 29.8631 1.84245 32.1549C4.13693 30.9733 6.33096 29.5168 8.13641 27.7008C9.30744 26.5245 10.4494 24.8062 11.0098 22.9876C9.19113 23.5453 7.47291 24.6899 6.29659 25.861ZM10.2062 32.6995C7.64737 32.6942 5.06212 33.2149 2.6064 34C5.06477 34.7851 7.64737 35.3058 10.2062 35.3006C11.8689 35.2979 13.8911 34.8908 15.5723 34C13.8911 33.1092 11.8662 32.7021 10.2062 32.6995ZM8.13641 40.2992C6.33096 38.4859 4.13428 37.0267 1.84245 35.8451C3.02406 38.1369 4.48322 40.3336 6.29659 42.139C7.47291 43.3101 9.19113 44.452 11.0098 45.0124C10.452 43.1938 9.30744 41.4756 8.13641 40.2992Z" fill="white"/>
</svg>
