<svg width="33" height="32" viewBox="0 0 33 32" fill="none" xmlns="http://www.w3.org/2000/svg">
<path fill-rule="evenodd" clip-rule="evenodd" d="M0.166504 0L16.1665 0V16H0.166504L0.166504 0ZM2.45222 2.28571L13.8808 2.28571V13.7143H2.45222L2.45222 2.28571ZM4.73793 4.57143L11.5951 4.57143V11.4286H4.73793L4.73793 4.57143ZM7.02365 6.85714L9.30936 6.85714V9.14286H7.02365L7.02365 6.85714ZM18.4522 2.28571L29.8808 2.28571V13.7143H18.4522V2.28571ZM20.7379 4.57143L27.5951 4.57143V11.4286H20.7379V4.57143ZM23.0236 6.85714L25.3094 6.85714V9.14286H23.0236V6.85714Z" fill="white"/>
<path fill-rule="evenodd" clip-rule="evenodd" d="M32.1665 16H16.1665V32H32.1665V16ZM29.8808 18.2857H18.4522V29.7143H29.8808V18.2857ZM27.5951 20.5714H20.7379V27.4286H27.5951V20.5714ZM25.3094 22.8571H23.0236V25.1429H25.3094V22.8571ZM13.8808 18.2857H2.45222V29.7143H13.8808V18.2857ZM11.5951 20.5714H4.73793V27.4286H11.5951V20.5714ZM9.30936 22.8571H7.02365V25.1429H9.30936V22.8571Z" fill="white"/>
</svg>
