<svg width="24" height="24" viewBox="0 0 24 24" fill="none" xmlns="http://www.w3.org/2000/svg">
<g clip-path="url(#clip0_4036_2602)">
<path d="M21.1194 9.39209H18.6586H3.95827C3.55542 9.39209 3.2288 9.71867 3.2288 10.1216V14.2403C3.2288 16.0884 3.95606 17.7699 5.13937 19.0136H2.69559C2.69316 19.0135 2.69077 19.0136 2.68833 19.0136H0.729469C0.326625 19.0135 0 19.3401 0 19.7429C0 20.1458 0.326625 20.4724 0.729469 20.4724H2.24747L2.82277 21.5567C3.55092 22.9289 4.96823 23.7813 6.52167 23.7813H16.4049C17.9583 23.7813 19.3757 22.9289 20.1038 21.5566L20.6791 20.4724H22.1971C22.5999 20.4724 22.9266 20.1458 22.9266 19.7429C22.9266 19.3401 22.5999 19.0135 22.1971 19.0135H17.4775C18.3938 18.0504 19.0366 16.825 19.2801 15.4628H21.1194C22.7078 15.4628 24 14.1706 24 12.5823V12.2726C24 10.6843 22.7078 9.39209 21.1194 9.39209ZM19.0276 20.4724L18.8151 20.8728C18.3407 21.7669 17.4171 22.3224 16.4049 22.3224H6.52167C5.5095 22.3224 4.58588 21.7669 4.11145 20.8728L3.89897 20.4724H19.0276ZM17.9292 14.2402C17.9292 16.2877 16.7984 18.0757 15.1289 19.0135H7.48805C5.81841 18.0757 4.68773 16.2877 4.68773 14.2402V10.851H12.1187V12.2812L10.8617 13.224C10.678 13.3617 10.5699 13.5779 10.5699 13.8075V16.9481C10.5699 17.3509 10.8965 17.6776 11.2994 17.6776H14.3969C14.7998 17.6776 15.1264 17.3509 15.1264 16.9481V13.8075C15.1264 13.5779 15.0183 13.3617 14.8346 13.224L13.5776 12.2812V10.851H17.9292V14.2402ZM12.8482 13.5578L13.6675 14.1723V16.2187H12.0288V14.1723L12.8482 13.5578ZM22.5411 12.5823C22.5411 13.3662 21.9034 14.0039 21.1194 14.0039H19.3881V10.8509H21.1194C21.9034 10.8509 22.5411 11.4887 22.5411 12.2726V12.5823Z" fill="currentColor"/>
<path d="M9.51166 5.97305C9.35871 5.45316 9.46535 5.03311 9.84714 4.65127C11.3012 3.19725 10.5238 1.30289 9.90953 0.504422C9.66391 0.185156 9.20472 0.123844 8.88541 0.369469C8.5661 0.61514 8.50521 1.07161 8.75078 1.39097C8.7536 1.39467 9.03091 1.76695 9.15724 2.25277C9.30166 2.80781 9.19305 3.2422 8.81547 3.61978C8.05971 4.37559 7.80991 5.35758 8.11202 6.3848C8.32178 7.098 8.72556 7.59591 8.77094 7.65028C8.91522 7.82344 9.12269 7.91273 9.33171 7.91273C9.49638 7.91273 9.66194 7.85728 9.7983 7.74366C10.1078 7.4857 10.1496 7.02576 9.89167 6.7163C9.88928 6.71325 9.63663 6.39769 9.51166 5.97305Z" fill="currentColor"/>
<path d="M13.7754 5.97305C13.6225 5.45316 13.7291 5.03311 14.1109 4.65127C15.565 3.19725 14.7876 1.30289 14.1733 0.504422C13.9277 0.185156 13.4686 0.123844 13.1492 0.369469C12.8299 0.61514 12.769 1.07161 13.0146 1.39097C13.0174 1.39467 13.2947 1.76695 13.421 2.25277C13.5654 2.80781 13.4568 3.2422 13.0793 3.61978C12.3235 4.37559 12.0737 5.35758 12.3758 6.3848C12.5856 7.098 12.9894 7.59591 13.0347 7.65028C13.179 7.82344 13.3865 7.91273 13.5955 7.91273C13.7602 7.91273 13.9257 7.85728 14.0621 7.74366C14.3716 7.4857 14.4134 7.02576 14.1555 6.7163C14.153 6.71325 13.9004 6.39769 13.7754 5.97305Z" fill="currentColor"/>
</g>
<defs>
<clipPath id="clip0_4036_2602">
<rect width="24" height="24" fill="white"/>
</clipPath>
</defs>
</svg>
